<svg width="1440" height="344" viewBox="0 0 1440 344" fill="none" xmlns="http://www.w3.org/2000/svg">
<g opacity="0.12">
<path d="M12.956 191.595H10.603V283.478H12.956V191.595Z" fill="url(#paint0_linear_1_69)"/>
<path d="M1438.1 54.4976H1435.75V99.7H1438.1V54.4976Z" fill="url(#paint1_linear_1_69)"/>
<path d="M1402.47 37.9014H1400.12V117.189H1402.47V37.9014Z" fill="url(#paint2_linear_1_69)"/>
<path d="M1366.85 57.2515H1364.49V125.796H1366.85V57.2515Z" fill="url(#paint3_linear_1_69)"/>
<path d="M1331.21 100.942H1328.86V191.347H1331.21V100.942Z" fill="url(#paint4_linear_1_69)"/>
<path d="M1295.58 111.521H1293.23V176.732H1295.58V111.521Z" fill="url(#paint5_linear_1_69)"/>
<path d="M1259.96 41.293H1257.61V199.128H1259.96V41.293Z" fill="url(#paint6_linear_1_69)"/>
<path d="M1224.33 35.5046H1221.98V147.769H1224.33V35.5046Z" fill="url(#paint7_linear_1_69)"/>
<path d="M1188.7 53.1389H1186.34V96.1192H1188.7V53.1389Z" fill="url(#paint8_linear_1_69)"/>
<path d="M1153.07 38.1055H1150.72V98.1264H1153.07V38.1055Z" fill="url(#paint9_linear_1_69)"/>
<path d="M1117.44 29.7126H1115.09V113.819H1117.44V29.7126Z" fill="url(#paint10_linear_1_69)"/>
<path d="M1081.81 72.3142H1079.46V125.665H1081.81V72.3142Z" fill="url(#paint11_linear_1_69)"/>
<path d="M1046.19 46.2432H1043.83V139.609H1046.19V46.2432Z" fill="url(#paint12_linear_1_69)"/>
<path d="M1010.56 74.824H1008.2V102.611H1010.56V74.824Z" fill="url(#paint13_linear_1_69)"/>
<path d="M974.925 56.155H972.573V94.5018H974.925V56.155Z" fill="url(#paint14_linear_1_69)"/>
<path d="M939.301 31.1697H936.948V107.863H939.301V31.1697Z" fill="url(#paint15_linear_1_69)"/>
<path d="M903.67 20.3071H901.317V91.4456H903.67V20.3071Z" fill="url(#paint16_linear_1_69)"/>
<path d="M868.045 25.1919H865.692V107.444H868.045V25.1919Z" fill="url(#paint17_linear_1_69)"/>
<path d="M832.414 0.0319824H830.061V102.294H832.414V0.0319824Z" fill="url(#paint18_linear_1_69)"/>
<path d="M796.79 18.9302H794.437V103.685H796.79V18.9302Z" fill="url(#paint19_linear_1_69)"/>
<path d="M761.159 62.5117H758.806V109.197H761.159V62.5117Z" fill="url(#paint20_linear_1_69)"/>
<path d="M725.528 39.9705H723.175V108.33H725.528V39.9705Z" fill="url(#paint21_linear_1_69)"/>
<path d="M689.898 28.864H687.545V148.91H689.898V28.864Z" fill="url(#paint22_linear_1_69)"/>
<path d="M654.273 24.0154H651.92V206.304H654.273V24.0154Z" fill="url(#paint23_linear_1_69)"/>
<path d="M618.642 48.6367H616.289V304.286H618.642V48.6367Z" fill="url(#paint24_linear_1_69)"/>
<path d="M583.011 160.023H580.658V262.281H583.011V160.023Z" fill="url(#paint25_linear_1_69)"/>
<path d="M547.387 133.617H545.034V253.663H547.387V133.617Z" fill="url(#paint26_linear_1_69)"/>
<path d="M511.756 113.189H509.403V223.228H511.756V113.189Z" fill="url(#paint27_linear_1_69)"/>
<path d="M476.125 115.429H473.772V235.475H476.125V115.429Z" fill="url(#paint28_linear_1_69)"/>
<path d="M440.501 112.992H438.148V165.604H440.501V112.992Z" fill="url(#paint29_linear_1_69)"/>
<path d="M404.87 98.6035H402.517V210.868H404.87V98.6035Z" fill="url(#paint30_linear_1_69)"/>
<path d="M369.239 155.663H366.886V205.681H369.239V155.663Z" fill="url(#paint31_linear_1_69)"/>
<path d="M333.614 147.864H331.261V243.456H333.614V147.864Z" fill="url(#paint32_linear_1_69)"/>
<path d="M297.984 140.691H295.631V282.965H297.984V140.691Z" fill="url(#paint33_linear_1_69)"/>
<path d="M262.353 191.595H260V283.478H262.353V191.595Z" fill="url(#paint34_linear_1_69)"/>
<path d="M226.728 229.253H224.375V263.341H226.728V229.253Z" fill="url(#paint35_linear_1_69)"/>
<path d="M191.098 138.87H188.745V343.39H191.098V138.87Z" fill="url(#paint36_linear_1_69)"/>
<path d="M155.473 192.156H153.12V261.812H155.473V192.156Z" fill="url(#paint37_linear_1_69)"/>
<path d="M119.842 175.068H117.489V314.38H119.842V175.068Z" fill="url(#paint38_linear_1_69)"/>
<path d="M84.2115 188.473H81.8585V329.267H84.2115V188.473Z" fill="url(#paint39_linear_1_69)"/>
<path d="M48.5867 184.411H46.2338V276.295H48.5867V184.411Z" fill="url(#paint40_linear_1_69)"/>
<path d="M23.5651 223.614H0V251.459H23.5651V223.614Z" fill="url(#paint41_linear_1_69)"/>
<path d="M1448.71 70.2488H1425.14V83.9454H1448.71V70.2488Z" fill="url(#paint42_linear_1_69)"/>
<path d="M1413.08 65.5315H1389.51V89.5588H1413.08V65.5315Z" fill="url(#paint43_linear_1_69)"/>
<path d="M1377.45 81.1404H1353.88V101.911H1377.45V81.1404Z" fill="url(#paint44_linear_1_69)"/>
<path d="M1341.82 132.448H1318.26V159.845H1341.82V132.448Z" fill="url(#paint45_linear_1_69)"/>
<path d="M1306.19 134.244H1282.63V154.006H1306.19V134.244Z" fill="url(#paint46_linear_1_69)"/>
<path d="M1270.56 96.2979H1247V144.127H1270.56V96.2979Z" fill="url(#paint47_linear_1_69)"/>
<path d="M1234.94 74.627H1211.37V108.646H1234.94V74.627Z" fill="url(#paint48_linear_1_69)"/>
<path d="M1199.31 68.114H1175.74V81.1403H1199.31V68.114Z" fill="url(#paint49_linear_1_69)"/>
<path d="M1163.68 59.022H1140.11V77.21H1163.68V59.022Z" fill="url(#paint50_linear_1_69)"/>
<path d="M1128.05 59.022H1104.49V84.5064H1128.05V59.022Z" fill="url(#paint51_linear_1_69)"/>
<path d="M1092.42 90.9065H1068.86V107.073H1092.42V90.9065Z" fill="url(#paint52_linear_1_69)"/>
<path d="M1056.79 78.7834H1033.22V107.076H1056.79V78.7834Z" fill="url(#paint53_linear_1_69)"/>
<path d="M1021.17 84.5063H997.6V92.9283H1021.17V84.5063Z" fill="url(#paint54_linear_1_69)"/>
<path d="M985.534 69.5164H961.969V81.1366H985.534V69.5164Z" fill="url(#paint55_linear_1_69)"/>
<path d="M949.904 57.8999H926.339V81.1404H949.904V57.8999Z" fill="url(#paint56_linear_1_69)"/>
<path d="M914.279 45.0994H890.714V66.6569H914.279V45.0994Z" fill="url(#paint57_linear_1_69)"/>
<path d="M878.654 53.8564H855.089V78.7835H878.654V53.8564Z" fill="url(#paint58_linear_1_69)"/>
<path d="M843.024 35.6685H819.458V66.657H843.024V35.6685Z" fill="url(#paint59_linear_1_69)"/>
<path d="M807.393 48.469H783.828V74.1501H807.393V48.469Z" fill="url(#paint60_linear_1_69)"/>
<path d="M771.768 78.7834H748.203V92.9281H771.768V78.7834Z" fill="url(#paint61_linear_1_69)"/>
<path d="M736.137 63.7939H712.572V84.51H736.137V63.7939Z" fill="url(#paint62_linear_1_69)"/>
<path d="M700.507 70.6968H676.942V107.073H700.507V70.6968Z" fill="url(#paint63_linear_1_69)"/>
<path d="M664.882 87.5371H641.317V142.775H664.882V87.5371Z" fill="url(#paint64_linear_1_69)"/>
<path d="M629.251 137.726H605.686V215.196H629.251V137.726Z" fill="url(#paint65_linear_1_69)"/>
<path d="M593.621 195.66H570.055V226.648H593.621V195.66Z" fill="url(#paint66_linear_1_69)"/>
<path d="M557.996 175.45H534.431V211.826H557.996V175.45Z" fill="url(#paint67_linear_1_69)"/>
<path d="M522.365 151.536H498.8V184.881H522.365V151.536Z" fill="url(#paint68_linear_1_69)"/>
<path d="M486.734 157.262H463.169V193.638H486.734V157.262Z" fill="url(#paint69_linear_1_69)"/>
<path d="M451.104 131.326H427.539V147.27H451.104V131.326Z" fill="url(#paint70_linear_1_69)"/>
<path d="M415.479 137.726H391.914V171.746H415.479V137.726Z" fill="url(#paint71_linear_1_69)"/>
<path d="M379.848 173.093H356.283V188.251H379.848V173.093Z" fill="url(#paint72_linear_1_69)"/>
<path d="M344.218 181.177H320.652V210.143H344.218V181.177Z" fill="url(#paint73_linear_1_69)"/>
<path d="M308.593 190.269H285.028V233.38H308.593V190.269Z" fill="url(#paint74_linear_1_69)"/>
<path d="M272.962 223.614H249.397V251.459H272.962V223.614Z" fill="url(#paint75_linear_1_69)"/>
<path d="M237.331 241.132H213.766V251.463H237.331V241.132Z" fill="url(#paint76_linear_1_69)"/>
<path d="M201.707 210.143H178.142V272.12H201.707V210.143Z" fill="url(#paint77_linear_1_69)"/>
<path d="M166.076 216.431H142.511V237.537H166.076V216.431Z" fill="url(#paint78_linear_1_69)"/>
<path d="M130.445 223.614H106.88V265.829H130.445V223.614Z" fill="url(#paint79_linear_1_69)"/>
<path d="M94.8206 237.536H71.2555V280.2H94.8206V237.536Z" fill="url(#paint80_linear_1_69)"/>
<path d="M59.1958 216.431H35.6307V244.276H59.1958V216.431Z" fill="url(#paint81_linear_1_69)"/>
</g>
<defs>
<linearGradient id="paint0_linear_1_69" x1="11.7829" y1="283.48" x2="11.7829" y2="191.595" gradientUnits="userSpaceOnUse">
<stop stop-color="#007C87"/>
<stop offset="1" stop-color="#00C795"/>
</linearGradient>
<linearGradient id="paint1_linear_1_69" x1="1436.92" y1="99.6976" x2="1436.92" y2="54.4963" gradientUnits="userSpaceOnUse">
<stop stop-color="#007C87"/>
<stop offset="1" stop-color="#00C795"/>
</linearGradient>
<linearGradient id="paint2_linear_1_69" x1="1401.3" y1="117.191" x2="1401.3" y2="37.9021" gradientUnits="userSpaceOnUse">
<stop stop-color="#FF2A00"/>
<stop offset="1" stop-color="#FF6A00"/>
</linearGradient>
<linearGradient id="paint3_linear_1_69" x1="1365.67" y1="125.796" x2="1365.67" y2="57.253" gradientUnits="userSpaceOnUse">
<stop stop-color="#007C87"/>
<stop offset="1" stop-color="#00C795"/>
</linearGradient>
<linearGradient id="paint4_linear_1_69" x1="1330.04" y1="191.348" x2="1330.04" y2="100.944" gradientUnits="userSpaceOnUse">
<stop stop-color="#007C87"/>
<stop offset="1" stop-color="#00C795"/>
</linearGradient>
<linearGradient id="paint5_linear_1_69" x1="1294.41" y1="176.73" x2="1294.41" y2="111.52" gradientUnits="userSpaceOnUse">
<stop stop-color="#FF2A00"/>
<stop offset="1" stop-color="#FF6A00"/>
</linearGradient>
<linearGradient id="paint6_linear_1_69" x1="1258.78" y1="199.129" x2="1258.78" y2="41.2933" gradientUnits="userSpaceOnUse">
<stop stop-color="#FF2A00"/>
<stop offset="1" stop-color="#FF6A00"/>
</linearGradient>
<linearGradient id="paint7_linear_1_69" x1="1223.15" y1="147.768" x2="1223.15" y2="35.5051" gradientUnits="userSpaceOnUse">
<stop stop-color="#007C87"/>
<stop offset="1" stop-color="#00C795"/>
</linearGradient>
<linearGradient id="paint8_linear_1_69" x1="1187.52" y1="96.1165" x2="1187.52" y2="53.1379" gradientUnits="userSpaceOnUse">
<stop stop-color="#FF2A00"/>
<stop offset="1" stop-color="#FF6A00"/>
</linearGradient>
<linearGradient id="paint9_linear_1_69" x1="1151.9" y1="98.1263" x2="1151.9" y2="38.1043" gradientUnits="userSpaceOnUse">
<stop stop-color="#FF2A00"/>
<stop offset="1" stop-color="#FF6A00"/>
</linearGradient>
<linearGradient id="paint10_linear_1_69" x1="1116.27" y1="113.817" x2="1116.27" y2="29.7114" gradientUnits="userSpaceOnUse">
<stop stop-color="#007C87"/>
<stop offset="1" stop-color="#00C795"/>
</linearGradient>
<linearGradient id="paint11_linear_1_69" x1="1080.64" y1="125.667" x2="1080.64" y2="72.3145" gradientUnits="userSpaceOnUse">
<stop stop-color="#007C87"/>
<stop offset="1" stop-color="#00C795"/>
</linearGradient>
<linearGradient id="paint12_linear_1_69" x1="1045.01" y1="139.612" x2="1045.01" y2="46.2435" gradientUnits="userSpaceOnUse">
<stop stop-color="#FF2A00"/>
<stop offset="1" stop-color="#FF6A00"/>
</linearGradient>
<linearGradient id="paint13_linear_1_69" x1="1009.38" y1="102.612" x2="1009.38" y2="74.8239" gradientUnits="userSpaceOnUse">
<stop stop-color="#FF2A00"/>
<stop offset="1" stop-color="#FF6A00"/>
</linearGradient>
<linearGradient id="paint14_linear_1_69" x1="973.752" y1="94.5023" x2="973.752" y2="56.1554" gradientUnits="userSpaceOnUse">
<stop stop-color="#FF2A00"/>
<stop offset="1" stop-color="#FF6A00"/>
</linearGradient>
<linearGradient id="paint15_linear_1_69" x1="938.123" y1="107.866" x2="938.123" y2="31.1714" gradientUnits="userSpaceOnUse">
<stop stop-color="#007C87"/>
<stop offset="1" stop-color="#00C795"/>
</linearGradient>
<linearGradient id="paint16_linear_1_69" x1="902.494" y1="91.446" x2="902.494" y2="20.3088" gradientUnits="userSpaceOnUse">
<stop stop-color="#007C87"/>
<stop offset="1" stop-color="#00C795"/>
</linearGradient>
<linearGradient id="paint17_linear_1_69" x1="866.869" y1="107.444" x2="866.869" y2="25.1928" gradientUnits="userSpaceOnUse">
<stop stop-color="#FF2A00"/>
<stop offset="1" stop-color="#FF6A00"/>
</linearGradient>
<linearGradient id="paint18_linear_1_69" x1="831.24" y1="102.292" x2="831.24" y2="0.0316533" gradientUnits="userSpaceOnUse">
<stop stop-color="#007C87"/>
<stop offset="1" stop-color="#00C795"/>
</linearGradient>
<linearGradient id="paint19_linear_1_69" x1="795.611" y1="103.685" x2="795.611" y2="18.932" gradientUnits="userSpaceOnUse">
<stop stop-color="#007C87"/>
<stop offset="1" stop-color="#00C795"/>
</linearGradient>
<linearGradient id="paint20_linear_1_69" x1="759.983" y1="109.197" x2="759.983" y2="62.5129" gradientUnits="userSpaceOnUse">
<stop stop-color="#007C87"/>
<stop offset="1" stop-color="#00C795"/>
</linearGradient>
<linearGradient id="paint21_linear_1_69" x1="724.354" y1="108.329" x2="724.354" y2="39.971" gradientUnits="userSpaceOnUse">
<stop stop-color="#FF2A00"/>
<stop offset="1" stop-color="#FF6A00"/>
</linearGradient>
<linearGradient id="paint22_linear_1_69" x1="688.725" y1="148.908" x2="688.725" y2="28.8643" gradientUnits="userSpaceOnUse">
<stop stop-color="#007C87"/>
<stop offset="1" stop-color="#00C795"/>
</linearGradient>
<linearGradient id="paint23_linear_1_69" x1="653.097" y1="206.303" x2="653.097" y2="24.0143" gradientUnits="userSpaceOnUse">
<stop stop-color="#007C87"/>
<stop offset="1" stop-color="#00C795"/>
</linearGradient>
<linearGradient id="paint24_linear_1_69" x1="617.468" y1="304.285" x2="617.468" y2="48.6357" gradientUnits="userSpaceOnUse">
<stop stop-color="#007C87"/>
<stop offset="1" stop-color="#00C795"/>
</linearGradient>
<linearGradient id="paint25_linear_1_69" x1="581.839" y1="262.283" x2="581.839" y2="160.024" gradientUnits="userSpaceOnUse">
<stop stop-color="#FF2A00"/>
<stop offset="1" stop-color="#FF6A00"/>
</linearGradient>
<linearGradient id="paint26_linear_1_69" x1="546.21" y1="253.66" x2="546.21" y2="133.616" gradientUnits="userSpaceOnUse">
<stop stop-color="#FF2A00"/>
<stop offset="1" stop-color="#FF6A00"/>
</linearGradient>
<linearGradient id="paint27_linear_1_69" x1="510.582" y1="223.228" x2="510.582" y2="113.188" gradientUnits="userSpaceOnUse">
<stop stop-color="#FF2A00"/>
<stop offset="1" stop-color="#FF6A00"/>
</linearGradient>
<linearGradient id="paint28_linear_1_69" x1="474.953" y1="235.472" x2="474.953" y2="115.428" gradientUnits="userSpaceOnUse">
<stop stop-color="#FF2A00"/>
<stop offset="1" stop-color="#FF6A00"/>
</linearGradient>
<linearGradient id="paint29_linear_1_69" x1="439.324" y1="165.603" x2="439.324" y2="112.991" gradientUnits="userSpaceOnUse">
<stop stop-color="#007C87"/>
<stop offset="1" stop-color="#00C795"/>
</linearGradient>
<linearGradient id="paint30_linear_1_69" x1="403.695" y1="210.867" x2="403.695" y2="98.6034" gradientUnits="userSpaceOnUse">
<stop stop-color="#007C87"/>
<stop offset="1" stop-color="#00C795"/>
</linearGradient>
<linearGradient id="paint31_linear_1_69" x1="368.067" y1="205.68" x2="368.067" y2="155.661" gradientUnits="userSpaceOnUse">
<stop stop-color="#007C87"/>
<stop offset="1" stop-color="#00C795"/>
</linearGradient>
<linearGradient id="paint32_linear_1_69" x1="332.438" y1="243.455" x2="332.438" y2="147.864" gradientUnits="userSpaceOnUse">
<stop stop-color="#FF2A00"/>
<stop offset="1" stop-color="#FF6A00"/>
</linearGradient>
<linearGradient id="paint33_linear_1_69" x1="296.809" y1="282.964" x2="296.809" y2="140.69" gradientUnits="userSpaceOnUse">
<stop stop-color="#007C87"/>
<stop offset="1" stop-color="#00C795"/>
</linearGradient>
<linearGradient id="paint34_linear_1_69" x1="261.18" y1="283.48" x2="261.18" y2="191.595" gradientUnits="userSpaceOnUse">
<stop stop-color="#FF2A00"/>
<stop offset="1" stop-color="#FF6A00"/>
</linearGradient>
<linearGradient id="paint35_linear_1_69" x1="225.552" y1="263.339" x2="225.552" y2="229.252" gradientUnits="userSpaceOnUse">
<stop stop-color="#007C87"/>
<stop offset="1" stop-color="#00C795"/>
</linearGradient>
<linearGradient id="paint36_linear_1_69" x1="189.923" y1="343.39" x2="189.923" y2="138.87" gradientUnits="userSpaceOnUse">
<stop stop-color="#007C87"/>
<stop offset="1" stop-color="#00C795"/>
</linearGradient>
<linearGradient id="paint37_linear_1_69" x1="154.294" y1="261.811" x2="154.294" y2="192.156" gradientUnits="userSpaceOnUse">
<stop stop-color="#FF2A00"/>
<stop offset="1" stop-color="#FF6A00"/>
</linearGradient>
<linearGradient id="paint38_linear_1_69" x1="118.666" y1="314.379" x2="118.666" y2="175.068" gradientUnits="userSpaceOnUse">
<stop stop-color="#FF2A00"/>
<stop offset="1" stop-color="#FF6A00"/>
</linearGradient>
<linearGradient id="paint39_linear_1_69" x1="83.037" y1="329.267" x2="83.037" y2="188.473" gradientUnits="userSpaceOnUse">
<stop stop-color="#FF2A00"/>
<stop offset="1" stop-color="#FF6A00"/>
</linearGradient>
<linearGradient id="paint40_linear_1_69" x1="47.4117" y1="276.295" x2="47.4117" y2="184.409" gradientUnits="userSpaceOnUse">
<stop stop-color="#FF2A00"/>
<stop offset="1" stop-color="#FF6A00"/>
</linearGradient>
<linearGradient id="paint41_linear_1_69" x1="11.783" y1="251.46" x2="11.783" y2="223.615" gradientUnits="userSpaceOnUse">
<stop stop-color="#007C87"/>
<stop offset="1" stop-color="#00C795"/>
</linearGradient>
<linearGradient id="paint42_linear_1_69" x1="1436.93" y1="83.9465" x2="1436.93" y2="70.249" gradientUnits="userSpaceOnUse">
<stop stop-color="#007C87"/>
<stop offset="1" stop-color="#00C795"/>
</linearGradient>
<linearGradient id="paint43_linear_1_69" x1="1401.3" y1="89.5603" x2="1401.3" y2="65.5326" gradientUnits="userSpaceOnUse">
<stop stop-color="#FF2A00"/>
<stop offset="1" stop-color="#FF6A00"/>
</linearGradient>
<linearGradient id="paint44_linear_1_69" x1="1365.67" y1="101.91" x2="1365.67" y2="81.1394" gradientUnits="userSpaceOnUse">
<stop stop-color="#007C87"/>
<stop offset="1" stop-color="#00C795"/>
</linearGradient>
<linearGradient id="paint45_linear_1_69" x1="1330.04" y1="159.844" x2="1330.04" y2="132.449" gradientUnits="userSpaceOnUse">
<stop stop-color="#007C87"/>
<stop offset="1" stop-color="#00C795"/>
</linearGradient>
<linearGradient id="paint46_linear_1_69" x1="1294.41" y1="154.006" x2="1294.41" y2="134.245" gradientUnits="userSpaceOnUse">
<stop stop-color="#FF2A00"/>
<stop offset="1" stop-color="#FF6A00"/>
</linearGradient>
<linearGradient id="paint47_linear_1_69" x1="1258.78" y1="144.126" x2="1258.78" y2="96.2963" gradientUnits="userSpaceOnUse">
<stop stop-color="#FF2A00"/>
<stop offset="1" stop-color="#FF6A00"/>
</linearGradient>
<linearGradient id="paint48_linear_1_69" x1="1223.15" y1="108.647" x2="1223.15" y2="74.6269" gradientUnits="userSpaceOnUse">
<stop stop-color="#007C87"/>
<stop offset="1" stop-color="#00C795"/>
</linearGradient>
<linearGradient id="paint49_linear_1_69" x1="1187.52" y1="81.1394" x2="1187.52" y2="68.1147" gradientUnits="userSpaceOnUse">
<stop stop-color="#FF2A00"/>
<stop offset="1" stop-color="#FF6A00"/>
</linearGradient>
<linearGradient id="paint50_linear_1_69" x1="1151.9" y1="77.2095" x2="1151.9" y2="59.0215" gradientUnits="userSpaceOnUse">
<stop stop-color="#FF2A00"/>
<stop offset="1" stop-color="#FF6A00"/>
</linearGradient>
<linearGradient id="paint51_linear_1_69" x1="1116.27" y1="84.5071" x2="1116.27" y2="59.0215" gradientUnits="userSpaceOnUse">
<stop stop-color="#007C87"/>
<stop offset="1" stop-color="#00C795"/>
</linearGradient>
<linearGradient id="paint52_linear_1_69" x1="1080.64" y1="107.074" x2="1080.64" y2="90.9069" gradientUnits="userSpaceOnUse">
<stop stop-color="#007C87"/>
<stop offset="1" stop-color="#00C795"/>
</linearGradient>
<linearGradient id="paint53_linear_1_69" x1="1045.01" y1="107.074" x2="1045.01" y2="78.7818" gradientUnits="userSpaceOnUse">
<stop stop-color="#FF2A00"/>
<stop offset="1" stop-color="#FF6A00"/>
</linearGradient>
<linearGradient id="paint54_linear_1_69" x1="1009.38" y1="92.9277" x2="1009.38" y2="84.5071" gradientUnits="userSpaceOnUse">
<stop stop-color="#FF2A00"/>
<stop offset="1" stop-color="#FF6A00"/>
</linearGradient>
<linearGradient id="paint55_linear_1_69" x1="973.752" y1="81.1392" x2="973.752" y2="69.5182" gradientUnits="userSpaceOnUse">
<stop stop-color="#FF2A00"/>
<stop offset="1" stop-color="#FF6A00"/>
</linearGradient>
<linearGradient id="paint56_linear_1_69" x1="938.123" y1="81.1394" x2="938.123" y2="57.8982" gradientUnits="userSpaceOnUse">
<stop stop-color="#007C87"/>
<stop offset="1" stop-color="#00C795"/>
</linearGradient>
<linearGradient id="paint57_linear_1_69" x1="902.494" y1="66.6556" x2="902.494" y2="45.0991" gradientUnits="userSpaceOnUse">
<stop stop-color="#007C87"/>
<stop offset="1" stop-color="#00C795"/>
</linearGradient>
<linearGradient id="paint58_linear_1_69" x1="866.869" y1="78.7819" x2="866.869" y2="53.8566" gradientUnits="userSpaceOnUse">
<stop stop-color="#FF2A00"/>
<stop offset="1" stop-color="#FF6A00"/>
</linearGradient>
<linearGradient id="paint59_linear_1_69" x1="831.24" y1="66.6557" x2="831.24" y2="35.6675" gradientUnits="userSpaceOnUse">
<stop stop-color="#007C87"/>
<stop offset="1" stop-color="#00C795"/>
</linearGradient>
<linearGradient id="paint60_linear_1_69" x1="795.612" y1="74.1501" x2="795.612" y2="48.4677" gradientUnits="userSpaceOnUse">
<stop stop-color="#007C87"/>
<stop offset="1" stop-color="#00C795"/>
</linearGradient>
<linearGradient id="paint61_linear_1_69" x1="759.983" y1="92.9275" x2="759.983" y2="78.7818" gradientUnits="userSpaceOnUse">
<stop stop-color="#007C87"/>
<stop offset="1" stop-color="#00C795"/>
</linearGradient>
<linearGradient id="paint62_linear_1_69" x1="724.354" y1="84.5071" x2="724.354" y2="63.7923" gradientUnits="userSpaceOnUse">
<stop stop-color="#FF2A00"/>
<stop offset="1" stop-color="#FF6A00"/>
</linearGradient>
<linearGradient id="paint63_linear_1_69" x1="688.725" y1="107.074" x2="688.725" y2="70.697" gradientUnits="userSpaceOnUse">
<stop stop-color="#007C87"/>
<stop offset="1" stop-color="#00C795"/>
</linearGradient>
<linearGradient id="paint64_linear_1_69" x1="653.097" y1="142.778" x2="653.097" y2="87.5385" gradientUnits="userSpaceOnUse">
<stop stop-color="#007C87"/>
<stop offset="1" stop-color="#00C795"/>
</linearGradient>
<linearGradient id="paint65_linear_1_69" x1="617.468" y1="215.194" x2="617.468" y2="137.726" gradientUnits="userSpaceOnUse">
<stop stop-color="#007C87"/>
<stop offset="1" stop-color="#00C795"/>
</linearGradient>
<linearGradient id="paint66_linear_1_69" x1="581.839" y1="226.647" x2="581.839" y2="195.66" gradientUnits="userSpaceOnUse">
<stop stop-color="#FF2A00"/>
<stop offset="1" stop-color="#FF6A00"/>
</linearGradient>
<linearGradient id="paint67_linear_1_69" x1="546.21" y1="211.827" x2="546.21" y2="175.45" gradientUnits="userSpaceOnUse">
<stop stop-color="#FF2A00"/>
<stop offset="1" stop-color="#FF6A00"/>
</linearGradient>
<linearGradient id="paint68_linear_1_69" x1="510.582" y1="184.881" x2="510.582" y2="151.536" gradientUnits="userSpaceOnUse">
<stop stop-color="#FF2A00"/>
<stop offset="1" stop-color="#FF6A00"/>
</linearGradient>
<linearGradient id="paint69_linear_1_69" x1="474.953" y1="193.638" x2="474.953" y2="157.262" gradientUnits="userSpaceOnUse">
<stop stop-color="#FF2A00"/>
<stop offset="1" stop-color="#FF6A00"/>
</linearGradient>
<linearGradient id="paint70_linear_1_69" x1="439.324" y1="147.268" x2="439.324" y2="131.326" gradientUnits="userSpaceOnUse">
<stop stop-color="#007C87"/>
<stop offset="1" stop-color="#00C795"/>
</linearGradient>
<linearGradient id="paint71_linear_1_69" x1="403.695" y1="171.744" x2="403.695" y2="137.726" gradientUnits="userSpaceOnUse">
<stop stop-color="#007C87"/>
<stop offset="1" stop-color="#00C795"/>
</linearGradient>
<linearGradient id="paint72_linear_1_69" x1="368.067" y1="188.249" x2="368.067" y2="173.092" gradientUnits="userSpaceOnUse">
<stop stop-color="#007C87"/>
<stop offset="1" stop-color="#00C795"/>
</linearGradient>
<linearGradient id="paint73_linear_1_69" x1="332.438" y1="210.142" x2="332.438" y2="181.176" gradientUnits="userSpaceOnUse">
<stop stop-color="#FF2A00"/>
<stop offset="1" stop-color="#FF6A00"/>
</linearGradient>
<linearGradient id="paint74_linear_1_69" x1="296.809" y1="233.384" x2="296.809" y2="190.27" gradientUnits="userSpaceOnUse">
<stop stop-color="#007C87"/>
<stop offset="1" stop-color="#00C795"/>
</linearGradient>
<linearGradient id="paint75_linear_1_69" x1="261.181" y1="251.46" x2="261.181" y2="223.615" gradientUnits="userSpaceOnUse">
<stop stop-color="#FF2A00"/>
<stop offset="1" stop-color="#FF6A00"/>
</linearGradient>
<linearGradient id="paint76_linear_1_69" x1="225.552" y1="251.46" x2="225.552" y2="241.13" gradientUnits="userSpaceOnUse">
<stop stop-color="#007C87"/>
<stop offset="1" stop-color="#00C795"/>
</linearGradient>
<linearGradient id="paint77_linear_1_69" x1="189.923" y1="272.119" x2="189.923" y2="210.142" gradientUnits="userSpaceOnUse">
<stop stop-color="#007C87"/>
<stop offset="1" stop-color="#00C795"/>
</linearGradient>
<linearGradient id="paint78_linear_1_69" x1="154.294" y1="237.537" x2="154.294" y2="216.43" gradientUnits="userSpaceOnUse">
<stop stop-color="#FF2A00"/>
<stop offset="1" stop-color="#FF6A00"/>
</linearGradient>
<linearGradient id="paint79_linear_1_69" x1="118.666" y1="265.831" x2="118.666" y2="223.615" gradientUnits="userSpaceOnUse">
<stop stop-color="#FF2A00"/>
<stop offset="1" stop-color="#FF6A00"/>
</linearGradient>
<linearGradient id="paint80_linear_1_69" x1="83.0371" y1="280.203" x2="83.0371" y2="237.537" gradientUnits="userSpaceOnUse">
<stop stop-color="#FF2A00"/>
<stop offset="1" stop-color="#FF6A00"/>
</linearGradient>
<linearGradient id="paint81_linear_1_69" x1="47.4117" y1="244.274" x2="47.4117" y2="216.43" gradientUnits="userSpaceOnUse">
<stop stop-color="#FF2A00"/>
<stop offset="1" stop-color="#FF6A00"/>
</linearGradient>
</defs>
</svg>
