<svg width="23" height="23" viewBox="0 0 23 23" fill="none" xmlns="http://www.w3.org/2000/svg">
<g id="akar-icons:facebook-fill" clip-path="url(#clip0_1_2923)">
<path id="Vector" fill-rule="evenodd" clip-rule="evenodd" d="M0 11.5299C0 17.1217 4.06117 21.7714 9.37265 22.7143V14.5911H6.56085V11.4671H9.37265V8.96746C9.37265 6.15567 11.1844 4.59419 13.7469 4.59419C14.5585 4.59419 15.4339 4.71884 16.2456 4.8435V7.71809H14.8088C13.4338 7.71809 13.1217 8.4051 13.1217 9.28051V11.4671H16.121L15.6214 14.5911H13.1217V22.7143C18.4332 21.7714 22.4944 17.1226 22.4944 11.5299C22.4944 5.30932 17.4331 0.219971 11.2472 0.219971C5.06123 0.219971 0 5.30932 0 11.5299Z" fill="#D5D9DB"/>
</g>
<defs>
<clipPath id="clip0_1_2923">
<rect width="22.4944" height="22.4944" fill="white" transform="translate(0 0.219971)"/>
</clipPath>
</defs>
</svg>
