<svg width="119" height="62" viewBox="0 0 119 62" fill="none" xmlns="http://www.w3.org/2000/svg">
<g id="Layer_1" clip-path="url(#clip0_1_2917)">
<g id="Infinity letter p and q logo">
<path id="Vector" d="M109.358 8.97866C103.601 3.17634 95.971 0 87.8265 0C79.682 0 72.0523 3.19206 66.295 8.97866L55.5293 19.8285L77.0607 41.5283C79.9316 44.4216 83.7542 46.0255 87.8265 46.0255C91.8987 46.0255 95.7213 44.4373 98.5922 41.5283C104.521 35.553 104.521 25.8195 98.5922 19.8285C95.7213 16.9352 91.8987 15.3313 87.8265 15.3313C83.7542 15.3313 79.9316 16.9195 77.0607 19.8285L69.8836 27.0618L62.7064 19.8285L69.8836 12.5953C74.6736 7.76788 81.0394 5.11045 87.8265 5.11045C94.6135 5.11045 100.979 7.76788 105.769 12.5953C115.661 22.5646 115.661 38.7765 105.769 48.7458C100.979 53.5732 94.6135 56.2306 87.8265 56.2306C81.0394 56.2306 74.6736 53.5732 69.8836 48.7458L66.295 45.1292L62.7064 48.7458L66.295 52.3624C72.0523 58.149 79.682 61.3411 87.8265 61.3411C95.971 61.3411 103.601 58.149 109.358 52.3624C121.231 40.3961 121.231 20.945 109.358 8.97866ZM77.0763 27.0618L80.6649 23.4452C82.584 21.511 85.1272 20.4418 87.8421 20.4418C90.5569 20.4418 93.1001 21.511 95.0192 23.4294C98.9822 27.4234 98.9822 33.9019 95.0192 37.8959C93.1001 39.83 90.5569 40.8836 87.8421 40.8836C85.1272 40.8836 82.584 39.8143 80.6649 37.8802L77.0763 34.2636L73.4878 30.647L77.0763 27.0303V27.0618Z" fill="white"/>
<path id="Vector_2" d="M44.7792 23.4452L41.1906 19.8285C38.3197 16.9352 34.4971 15.3313 30.4249 15.3313C26.3526 15.3313 22.53 16.9195 19.6591 19.8285C13.7302 25.8038 13.7302 35.5373 19.6591 41.5283C22.53 44.4216 26.3526 46.0255 30.4249 46.0255C34.4971 46.0255 38.3197 44.4373 41.1906 41.5283L44.7792 37.9117L48.3677 34.295L55.5449 41.5283L48.3677 48.7615C43.5778 53.5889 37.2119 56.2464 30.4249 56.2464C23.6378 56.2464 17.272 53.5889 12.482 48.7615C2.59002 38.7922 2.59002 22.5803 12.482 12.611C17.272 7.7836 23.6378 5.12617 30.4249 5.12617C37.2119 5.12617 43.5778 7.7836 48.3677 12.611L51.9563 16.2276L55.5449 12.611L51.9563 8.99439C46.199 3.19206 38.5538 0 30.4249 0C22.296 0 14.6507 3.19206 8.90903 8.97866C-2.96447 20.945 -2.96447 40.3961 8.90903 52.3624C14.6663 58.149 22.296 61.3411 30.4405 61.3411C38.585 61.3411 46.2146 58.149 51.9719 52.3624L62.7376 41.5125L44.7948 23.4294L44.7792 23.4452ZM41.1906 34.295L37.602 37.9117C35.6829 39.8458 33.1397 40.915 30.4249 40.915C27.71 40.915 25.1668 39.8458 23.2477 37.9274C19.2847 33.9334 19.2847 27.4549 23.2477 23.4609C25.1668 21.5268 27.71 20.4575 30.4249 20.4575C33.1397 20.4575 35.6829 21.5268 37.602 23.4609L41.1906 27.0775L44.7792 30.6941L41.1906 34.3107V34.295Z" fill="white"/>
</g>
</g>
<defs>
<clipPath id="clip0_1_2917">
<rect width="118.251" height="61.3568" fill="white"/>
</clipPath>
</defs>
</svg>
