<svg width="23" height="23" viewBox="0 0 23 23" fill="none" xmlns="http://www.w3.org/2000/svg">
<g id="ant-design:instagram-filled" clip-path="url(#clip0_1_2926)">
<path id="Vector" d="M11.7467 8.02596C9.85198 8.02596 8.30572 9.57225 8.30572 11.467C8.30572 13.3618 9.85198 14.9081 11.7467 14.9081C13.6415 14.9081 15.1877 13.3618 15.1877 11.467C15.1877 9.57225 13.6415 8.02596 11.7467 8.02596ZM22.0672 11.467C22.0672 10.0421 22.0801 8.63002 22.0001 7.20763C21.9201 5.5555 21.5432 4.08924 20.3351 2.88112C19.1244 1.67041 17.6607 1.2961 16.0086 1.21608C14.5837 1.13605 13.1717 1.14896 11.7493 1.14896C10.3244 1.14896 8.91235 1.13605 7.48999 1.21608C5.83789 1.2961 4.37165 1.673 3.16356 2.88112C1.95288 4.09182 1.57857 5.5555 1.49855 7.20763C1.41852 8.6326 1.43143 10.0447 1.43143 11.467C1.43143 12.8894 1.41852 14.3041 1.49855 15.7264C1.57857 17.3786 1.95546 18.8448 3.16356 20.0529C4.37423 21.2637 5.83789 21.638 7.48999 21.718C8.91493 21.798 10.327 21.7851 11.7493 21.7851C13.1742 21.7851 14.5863 21.798 16.0086 21.718C17.6607 21.638 19.127 21.2611 20.3351 20.0529C21.5457 18.8422 21.9201 17.3786 22.0001 15.7264C22.0827 14.3041 22.0672 12.892 22.0672 11.467ZM11.7467 16.7616C8.81683 16.7616 6.45227 14.397 6.45227 11.467C6.45227 8.53708 8.81683 6.17247 11.7467 6.17247C14.6766 6.17247 17.0412 8.53708 17.0412 11.467C17.0412 14.397 14.6766 16.7616 11.7467 16.7616ZM17.258 7.19215C16.574 7.19215 16.0215 6.63971 16.0215 5.95563C16.0215 5.27154 16.574 4.71911 17.258 4.71911C17.9421 4.71911 18.4945 5.27154 18.4945 5.95563C18.4947 6.11807 18.4629 6.27895 18.4008 6.42906C18.3388 6.57918 18.2477 6.71557 18.1328 6.83043C18.018 6.94529 17.8816 7.03637 17.7315 7.09844C17.5814 7.16051 17.4205 7.19235 17.258 7.19215Z" fill="#D5D9DB"/>
</g>
<defs>
<clipPath id="clip0_1_2926">
<rect width="22.4944" height="22.4944" fill="white" transform="translate(0.501953 0.219971)"/>
</clipPath>
</defs>
</svg>
