<svg width="107" height="56" viewBox="0 0 107 56" fill="none" xmlns="http://www.w3.org/2000/svg">
<g id="Layer_1" clip-path="url(#clip0_1_336)">
<g id="Infinity letter p and q logo">
<path id="Vector" d="M98.8583 8.86948C93.6975 3.6683 86.8583 0.821045 79.5576 0.821045C72.2569 0.821045 65.4178 3.6824 60.2569 8.86948L50.6066 18.5953L69.9073 38.0468C72.4807 40.6404 75.9073 42.0781 79.5576 42.0781C83.208 42.0781 86.6345 40.6545 89.208 38.0468C94.5226 32.6906 94.5226 23.9656 89.208 18.5953C86.6345 16.0017 83.208 14.564 79.5576 14.564C75.9073 14.564 72.4807 15.9876 69.9073 18.5953L63.4737 25.0791L57.0401 18.5953L63.4737 12.1114C67.7674 7.78414 73.4737 5.40203 79.5576 5.40203C85.6415 5.40203 91.3478 7.78414 95.6415 12.1114C104.509 21.0479 104.509 35.5801 95.6415 44.5166C91.3478 48.8439 85.6415 51.226 79.5576 51.226C73.4737 51.226 67.7674 48.8439 63.4737 44.5166L60.2569 41.2747L57.0401 44.5166L60.2569 47.7585C65.4178 52.9456 72.2569 55.8069 79.5576 55.8069C86.8583 55.8069 93.6975 52.9456 98.8583 47.7585C109.502 37.032 109.502 19.596 98.8583 8.86948ZM69.9213 25.0791L73.138 21.8372C74.8583 20.1035 77.138 19.145 79.5716 19.145C82.0052 19.145 84.2849 20.1035 86.0052 21.8231C89.5576 25.4033 89.5576 31.2106 86.0052 34.7908C84.2849 36.5245 82.0052 37.4689 79.5716 37.4689C77.138 37.4689 74.8583 36.5104 73.138 34.7767L69.9213 31.5348L66.7045 28.2929L69.9213 25.0509V25.0791Z" fill="white"/>
<path id="Vector_2" d="M40.9702 21.8372L37.7534 18.5953C35.18 16.0017 31.7534 14.564 28.1031 14.564C24.4527 14.564 21.0262 15.9876 18.4527 18.5953C13.1381 23.9515 13.1381 32.6765 18.4527 38.0468C21.0262 40.6404 24.4527 42.0781 28.1031 42.0781C31.7534 42.0781 35.18 40.6545 37.7534 38.0468L40.9702 34.8049L44.187 31.563L50.6206 38.0468L44.187 44.5307C39.8933 48.8579 34.187 51.2401 28.1031 51.2401C22.0192 51.2401 16.3129 48.8579 12.0192 44.5307C3.15204 35.5942 3.15204 21.0619 12.0192 12.1255C16.3129 7.79824 22.0192 5.41612 28.1031 5.41612C34.187 5.41612 39.8933 7.79824 44.187 12.1255L47.4038 15.3674L50.6206 12.1255L47.4038 8.88358C42.243 3.6824 35.3898 0.821045 28.1031 0.821045C20.8164 0.821045 13.9632 3.6824 8.81638 8.86948C-1.82698 19.596 -1.82698 37.032 8.81638 47.7585C13.9772 52.9456 20.8164 55.8069 28.1171 55.8069C35.4178 55.8069 42.2569 52.9456 47.4178 47.7585L57.0681 38.0327L40.9842 21.8231L40.9702 21.8372ZM37.7534 31.563L34.5367 34.8049C32.8164 36.5386 30.5367 37.4971 28.1031 37.4971C25.6695 37.4971 23.3898 36.5386 21.6695 34.819C18.1171 31.2388 18.1171 25.4315 21.6695 21.8513C23.3898 20.1176 25.6695 19.1591 28.1031 19.1591C30.5367 19.1591 32.8164 20.1176 34.5367 21.8513L37.7534 25.0932L40.9702 28.3351L37.7534 31.5771V31.563Z" fill="white"/>
</g>
</g>
<defs>
<clipPath id="clip0_1_336">
<rect width="106" height="55" fill="white" transform="translate(0.830322 0.821045)"/>
</clipPath>
</defs>
</svg>
