<svg width="49" height="25" viewBox="0 0 49 25" fill="none" xmlns="http://www.w3.org/2000/svg">
<g id="Layer_1" clip-path="url(#clip0_1_3550)">
<g id="Infinity letter p and q logo">
<path id="Vector" d="M45.3148 3.65838C42.9291 1.29421 39.7677 0 36.3928 0C33.0179 0 29.8564 1.30062 27.4708 3.65838L23.0098 8.07919L31.9318 16.9208C33.1214 18.0997 34.7054 18.7532 36.3928 18.7532C38.0802 18.7532 39.6642 18.1061 40.8538 16.9208C43.3106 14.4862 43.3106 10.5202 40.8538 8.07919C39.6642 6.90031 38.0802 6.2468 36.3928 6.2468C34.7054 6.2468 33.1214 6.8939 31.9318 8.07919L28.9578 11.0264L25.9838 8.07919L28.9578 5.13198C30.9426 3.16504 33.5804 2.08227 36.3928 2.08227C39.2052 2.08227 41.843 3.16504 43.8278 5.13198C47.9268 9.194 47.9268 15.7996 43.8278 19.8616C41.843 21.8285 39.2052 22.9113 36.3928 22.9113C33.5804 22.9113 30.9426 21.8285 28.9578 19.8616L27.4708 18.388L25.9838 19.8616L27.4708 21.3352C29.8564 23.693 33.0179 24.9936 36.3928 24.9936C39.7677 24.9936 42.9291 23.693 45.3148 21.3352C50.2349 16.4595 50.2349 8.53409 45.3148 3.65838ZM31.9383 11.0264L33.4253 9.55279C34.2205 8.76474 35.2743 8.32906 36.3993 8.32906C37.5242 8.32906 38.578 8.76474 39.3733 9.54639C41.0154 11.1738 41.0154 13.8134 39.3733 15.4408C38.578 16.2289 37.5242 16.6581 36.3993 16.6581C35.2743 16.6581 34.2205 16.2225 33.4253 15.4344L31.9383 13.9608L30.4512 12.4872L31.9383 11.0136V11.0264Z" fill="white"/>
<path id="Vector_2" d="M18.5556 9.55279L17.0686 8.07919C15.8789 6.90031 14.295 6.2468 12.6075 6.2468C10.9201 6.2468 9.33613 6.8939 8.14653 8.07919C5.68974 10.5138 5.68974 14.4798 8.14653 16.9208C9.33613 18.0997 10.9201 18.7532 12.6075 18.7532C14.295 18.7532 15.8789 18.1061 17.0686 16.9208L18.5556 15.4472L20.0426 13.9736L23.0166 16.9208L20.0426 19.868C18.0577 21.835 15.4199 22.9177 12.6075 22.9177C9.79516 22.9177 7.15735 21.835 5.17252 19.868C1.07357 15.806 1.07357 9.20041 5.17252 5.13839C7.15735 3.17145 9.79516 2.08867 12.6075 2.08867C15.4199 2.08867 18.0577 3.17145 20.0426 5.13839L21.5296 6.61199L23.0166 5.13839L21.5296 3.66479C19.1439 1.30061 15.9759 0 12.6075 0C9.23915 0 6.07119 1.30062 3.69198 3.65838C-1.22806 8.53409 -1.22806 16.4595 3.69198 21.3352C6.07766 23.693 9.23915 24.9936 12.614 24.9936C15.9889 24.9936 19.1504 23.693 21.536 21.3352L25.997 16.9144L18.562 9.54639L18.5556 9.55279ZM17.0686 13.9736L15.5815 15.4472C14.7863 16.2353 13.7325 16.6709 12.6075 16.6709C11.4826 16.6709 10.4288 16.2353 9.63353 15.4536C7.99136 13.8262 7.99136 11.1866 9.63353 9.5592C10.4288 8.77114 11.4826 8.33547 12.6075 8.33547C13.7325 8.33547 14.7863 8.77114 15.5815 9.5592L17.0686 11.0328L18.5556 12.5064L17.0686 13.98V13.9736Z" fill="white"/>
</g>
</g>
<defs>
<clipPath id="clip0_1_3550">
<rect width="49" height="25" fill="white"/>
</clipPath>
</defs>
</svg>
