<svg width="1485" height="344" viewBox="0 0 1485 344" fill="none" xmlns="http://www.w3.org/2000/svg">
<g opacity="0.12">
<path d="M12.9565 191.563H10.6035V283.446H12.9565V191.563Z" fill="url(#paint0_linear_1_2211)"/>
<path d="M1438.1 54.4656H1435.75V99.668H1438.1V54.4656Z" fill="url(#paint1_linear_1_2211)"/>
<path d="M1402.47 37.8694H1400.12V117.157H1402.47V37.8694Z" fill="url(#paint2_linear_1_2211)"/>
<path d="M1366.85 57.2195H1364.49V125.764H1366.85V57.2195Z" fill="url(#paint3_linear_1_2211)"/>
<path d="M1331.22 100.91H1328.86V191.315H1331.22V100.91Z" fill="url(#paint4_linear_1_2211)"/>
<path d="M1295.58 111.489H1293.23V176.7H1295.58V111.489Z" fill="url(#paint5_linear_1_2211)"/>
<path d="M1259.96 41.261H1257.61V199.096H1259.96V41.261Z" fill="url(#paint6_linear_1_2211)"/>
<path d="M1224.33 35.4727H1221.98V147.737H1224.33V35.4727Z" fill="url(#paint7_linear_1_2211)"/>
<path d="M1188.7 53.1069H1186.35V96.0873H1188.7V53.1069Z" fill="url(#paint8_linear_1_2211)"/>
<path d="M1153.07 38.0735H1150.72V98.0944H1153.07V38.0735Z" fill="url(#paint9_linear_1_2211)"/>
<path d="M1117.44 29.6807H1115.09V113.787H1117.44V29.6807Z" fill="url(#paint10_linear_1_2211)"/>
<path d="M1081.81 72.2822H1079.46V125.633H1081.81V72.2822Z" fill="url(#paint11_linear_1_2211)"/>
<path d="M1046.19 46.2112H1043.83V139.577H1046.19V46.2112Z" fill="url(#paint12_linear_1_2211)"/>
<path d="M1010.56 74.792H1008.2V102.579H1010.56V74.792Z" fill="url(#paint13_linear_1_2211)"/>
<path d="M974.926 56.123H972.573V94.4699H974.926V56.123Z" fill="url(#paint14_linear_1_2211)"/>
<path d="M939.301 31.1377H936.948V107.831H939.301V31.1377Z" fill="url(#paint15_linear_1_2211)"/>
<path d="M903.67 20.2751H901.317V91.4136H903.67V20.2751Z" fill="url(#paint16_linear_1_2211)"/>
<path d="M868.045 25.1599H865.692V107.412H868.045V25.1599Z" fill="url(#paint17_linear_1_2211)"/>
<path d="M832.414 0H830.062V102.262H832.414V0Z" fill="url(#paint18_linear_1_2211)"/>
<path d="M796.79 18.8982H794.438V103.653H796.79V18.8982Z" fill="url(#paint19_linear_1_2211)"/>
<path d="M761.16 62.4797H758.807V109.165H761.16V62.4797Z" fill="url(#paint20_linear_1_2211)"/>
<path d="M725.529 39.9385H723.176V108.298H725.529V39.9385Z" fill="url(#paint21_linear_1_2211)"/>
<path d="M689.898 28.832H687.545V148.878H689.898V28.832Z" fill="url(#paint22_linear_1_2211)"/>
<path d="M654.273 23.9834H651.92V206.272H654.273V23.9834Z" fill="url(#paint23_linear_1_2211)"/>
<path d="M618.643 48.6047H616.29V304.254H618.643V48.6047Z" fill="url(#paint24_linear_1_2211)"/>
<path d="M583.012 159.991H580.659V262.249H583.012V159.991Z" fill="url(#paint25_linear_1_2211)"/>
<path d="M547.387 133.585H545.034V253.631H547.387V133.585Z" fill="url(#paint26_linear_1_2211)"/>
<path d="M511.756 113.157H509.403V223.196H511.756V113.157Z" fill="url(#paint27_linear_1_2211)"/>
<path d="M476.125 115.397H473.772V235.443H476.125V115.397Z" fill="url(#paint28_linear_1_2211)"/>
<path d="M440.501 112.96H438.148V165.572H440.501V112.96Z" fill="url(#paint29_linear_1_2211)"/>
<path d="M404.871 98.5715H402.518V210.836H404.871V98.5715Z" fill="url(#paint30_linear_1_2211)"/>
<path d="M369.24 155.631H366.887V205.649H369.24V155.631Z" fill="url(#paint31_linear_1_2211)"/>
<path d="M333.615 147.832H331.262V243.424H333.615V147.832Z" fill="url(#paint32_linear_1_2211)"/>
<path d="M297.984 140.659H295.631V282.933H297.984V140.659Z" fill="url(#paint33_linear_1_2211)"/>
<path d="M262.354 191.563H260.001V283.446H262.354V191.563Z" fill="url(#paint34_linear_1_2211)"/>
<path d="M226.729 229.221H224.376V263.309H226.729V229.221Z" fill="url(#paint35_linear_1_2211)"/>
<path d="M191.098 138.838H188.745V343.358H191.098V138.838Z" fill="url(#paint36_linear_1_2211)"/>
<path d="M155.473 192.124H153.12V261.78H155.473V192.124Z" fill="url(#paint37_linear_1_2211)"/>
<path d="M119.842 175.036H117.489V314.348H119.842V175.036Z" fill="url(#paint38_linear_1_2211)"/>
<path d="M84.2123 188.441H81.8594V329.235H84.2123V188.441Z" fill="url(#paint39_linear_1_2211)"/>
<path d="M48.5873 184.379H46.2344V276.263H48.5873V184.379Z" fill="url(#paint40_linear_1_2211)"/>
<path d="M23.5651 223.582H0V251.427H23.5651V223.582Z" fill="url(#paint41_linear_1_2211)"/>
<path d="M1484.33 50.9067H1460.77V65.5031H1484.33V50.9067Z" fill="url(#paint42_linear_1_2211)"/>
<path d="M1448.71 70.2168H1425.14V83.9134H1448.71V70.2168Z" fill="url(#paint43_linear_1_2211)"/>
<path d="M1413.08 65.4995H1389.51V89.5268H1413.08V65.4995Z" fill="url(#paint44_linear_1_2211)"/>
<path d="M1377.45 81.1084H1353.88V101.879H1377.45V81.1084Z" fill="url(#paint45_linear_1_2211)"/>
<path d="M1341.82 132.416H1318.26V159.813H1341.82V132.416Z" fill="url(#paint46_linear_1_2211)"/>
<path d="M1306.19 134.212H1282.63V153.974H1306.19V134.212Z" fill="url(#paint47_linear_1_2211)"/>
<path d="M1270.56 96.2659H1247V144.095H1270.56V96.2659Z" fill="url(#paint48_linear_1_2211)"/>
<path d="M1234.94 74.595H1211.37V108.614H1234.94V74.595Z" fill="url(#paint49_linear_1_2211)"/>
<path d="M1199.31 68.082H1175.74V81.1084H1199.31V68.082Z" fill="url(#paint50_linear_1_2211)"/>
<path d="M1163.68 58.99H1140.11V77.178H1163.68V58.99Z" fill="url(#paint51_linear_1_2211)"/>
<path d="M1128.05 58.99H1104.49V84.4744H1128.05V58.99Z" fill="url(#paint52_linear_1_2211)"/>
<path d="M1092.42 90.8745H1068.86V107.041H1092.42V90.8745Z" fill="url(#paint53_linear_1_2211)"/>
<path d="M1056.79 78.7515H1033.22V107.044H1056.79V78.7515Z" fill="url(#paint54_linear_1_2211)"/>
<path d="M1021.16 84.4744H997.6V92.8963H1021.16V84.4744Z" fill="url(#paint55_linear_1_2211)"/>
<path d="M985.535 69.4844H961.97V81.1046H985.535V69.4844Z" fill="url(#paint56_linear_1_2211)"/>
<path d="M949.904 57.8679H926.339V81.1084H949.904V57.8679Z" fill="url(#paint57_linear_1_2211)"/>
<path d="M914.279 45.0674H890.714V66.6249H914.279V45.0674Z" fill="url(#paint58_linear_1_2211)"/>
<path d="M878.654 53.8245H855.089V78.7515H878.654V53.8245Z" fill="url(#paint59_linear_1_2211)"/>
<path d="M843.024 35.6365H819.459V66.625H843.024V35.6365Z" fill="url(#paint60_linear_1_2211)"/>
<path d="M807.393 48.437H783.828V74.1181H807.393V48.437Z" fill="url(#paint61_linear_1_2211)"/>
<path d="M771.768 78.7515H748.203V92.8961H771.768V78.7515Z" fill="url(#paint62_linear_1_2211)"/>
<path d="M736.137 63.762H712.572V84.4781H736.137V63.762Z" fill="url(#paint63_linear_1_2211)"/>
<path d="M700.506 70.6648H676.941V107.041H700.506V70.6648Z" fill="url(#paint64_linear_1_2211)"/>
<path d="M664.882 87.5051H641.316V142.743H664.882V87.5051Z" fill="url(#paint65_linear_1_2211)"/>
<path d="M629.252 137.694H605.687V215.164H629.252V137.694Z" fill="url(#paint66_linear_1_2211)"/>
<path d="M593.621 195.628H570.056V226.616H593.621V195.628Z" fill="url(#paint67_linear_1_2211)"/>
<path d="M557.996 175.418H534.431V211.794H557.996V175.418Z" fill="url(#paint68_linear_1_2211)"/>
<path d="M522.365 151.504H498.8V184.849H522.365V151.504Z" fill="url(#paint69_linear_1_2211)"/>
<path d="M486.734 157.23H463.169V193.606H486.734V157.23Z" fill="url(#paint70_linear_1_2211)"/>
<path d="M451.104 131.294H427.539V147.238H451.104V131.294Z" fill="url(#paint71_linear_1_2211)"/>
<path d="M415.479 137.694H391.914V171.714H415.479V137.694Z" fill="url(#paint72_linear_1_2211)"/>
<path d="M379.848 173.061H356.283V188.219H379.848V173.061Z" fill="url(#paint73_linear_1_2211)"/>
<path d="M344.217 181.145H320.652V210.111H344.217V181.145Z" fill="url(#paint74_linear_1_2211)"/>
<path d="M308.592 190.237H285.027V233.348H308.592V190.237Z" fill="url(#paint75_linear_1_2211)"/>
<path d="M272.963 223.582H249.397V251.427H272.963V223.582Z" fill="url(#paint76_linear_1_2211)"/>
<path d="M237.332 241.1H213.767V251.431H237.332V241.1Z" fill="url(#paint77_linear_1_2211)"/>
<path d="M201.707 210.111H178.142V272.088H201.707V210.111Z" fill="url(#paint78_linear_1_2211)"/>
<path d="M166.076 216.399H142.511V237.505H166.076V216.399Z" fill="url(#paint79_linear_1_2211)"/>
<path d="M130.445 223.582H106.88V265.797H130.445V223.582Z" fill="url(#paint80_linear_1_2211)"/>
<path d="M94.8209 237.505H71.2559V280.168H94.8209V237.505Z" fill="url(#paint81_linear_1_2211)"/>
<path d="M59.1959 216.399H35.6309V244.244H59.1959V216.399Z" fill="url(#paint82_linear_1_2211)"/>
</g>
<defs>
<linearGradient id="paint0_linear_1_2211" x1="11.7834" y1="283.448" x2="11.7834" y2="191.563" gradientUnits="userSpaceOnUse">
<stop stop-color="#007C87"/>
<stop offset="1" stop-color="#00C795"/>
</linearGradient>
<linearGradient id="paint1_linear_1_2211" x1="1436.93" y1="99.6656" x2="1436.93" y2="54.4643" gradientUnits="userSpaceOnUse">
<stop stop-color="#007C87"/>
<stop offset="1" stop-color="#00C795"/>
</linearGradient>
<linearGradient id="paint2_linear_1_2211" x1="1401.3" y1="117.159" x2="1401.3" y2="37.8701" gradientUnits="userSpaceOnUse">
<stop stop-color="#FF2A00"/>
<stop offset="1" stop-color="#FF6A00"/>
</linearGradient>
<linearGradient id="paint3_linear_1_2211" x1="1365.67" y1="125.764" x2="1365.67" y2="57.221" gradientUnits="userSpaceOnUse">
<stop stop-color="#007C87"/>
<stop offset="1" stop-color="#00C795"/>
</linearGradient>
<linearGradient id="paint4_linear_1_2211" x1="1330.04" y1="191.316" x2="1330.04" y2="100.912" gradientUnits="userSpaceOnUse">
<stop stop-color="#007C87"/>
<stop offset="1" stop-color="#00C795"/>
</linearGradient>
<linearGradient id="paint5_linear_1_2211" x1="1294.41" y1="176.698" x2="1294.41" y2="111.488" gradientUnits="userSpaceOnUse">
<stop stop-color="#FF2A00"/>
<stop offset="1" stop-color="#FF6A00"/>
</linearGradient>
<linearGradient id="paint6_linear_1_2211" x1="1258.78" y1="199.097" x2="1258.78" y2="41.2613" gradientUnits="userSpaceOnUse">
<stop stop-color="#FF2A00"/>
<stop offset="1" stop-color="#FF6A00"/>
</linearGradient>
<linearGradient id="paint7_linear_1_2211" x1="1223.15" y1="147.736" x2="1223.15" y2="35.4731" gradientUnits="userSpaceOnUse">
<stop stop-color="#007C87"/>
<stop offset="1" stop-color="#00C795"/>
</linearGradient>
<linearGradient id="paint8_linear_1_2211" x1="1187.53" y1="96.0845" x2="1187.53" y2="53.1059" gradientUnits="userSpaceOnUse">
<stop stop-color="#FF2A00"/>
<stop offset="1" stop-color="#FF6A00"/>
</linearGradient>
<linearGradient id="paint9_linear_1_2211" x1="1151.9" y1="98.0943" x2="1151.9" y2="38.0724" gradientUnits="userSpaceOnUse">
<stop stop-color="#FF2A00"/>
<stop offset="1" stop-color="#FF6A00"/>
</linearGradient>
<linearGradient id="paint10_linear_1_2211" x1="1116.27" y1="113.785" x2="1116.27" y2="29.6794" gradientUnits="userSpaceOnUse">
<stop stop-color="#007C87"/>
<stop offset="1" stop-color="#00C795"/>
</linearGradient>
<linearGradient id="paint11_linear_1_2211" x1="1080.64" y1="125.635" x2="1080.64" y2="72.2825" gradientUnits="userSpaceOnUse">
<stop stop-color="#007C87"/>
<stop offset="1" stop-color="#00C795"/>
</linearGradient>
<linearGradient id="paint12_linear_1_2211" x1="1045.01" y1="139.58" x2="1045.01" y2="46.2115" gradientUnits="userSpaceOnUse">
<stop stop-color="#FF2A00"/>
<stop offset="1" stop-color="#FF6A00"/>
</linearGradient>
<linearGradient id="paint13_linear_1_2211" x1="1009.38" y1="102.58" x2="1009.38" y2="74.792" gradientUnits="userSpaceOnUse">
<stop stop-color="#FF2A00"/>
<stop offset="1" stop-color="#FF6A00"/>
</linearGradient>
<linearGradient id="paint14_linear_1_2211" x1="973.752" y1="94.4703" x2="973.752" y2="56.1234" gradientUnits="userSpaceOnUse">
<stop stop-color="#FF2A00"/>
<stop offset="1" stop-color="#FF6A00"/>
</linearGradient>
<linearGradient id="paint15_linear_1_2211" x1="938.123" y1="107.834" x2="938.123" y2="31.1394" gradientUnits="userSpaceOnUse">
<stop stop-color="#007C87"/>
<stop offset="1" stop-color="#00C795"/>
</linearGradient>
<linearGradient id="paint16_linear_1_2211" x1="902.495" y1="91.414" x2="902.495" y2="20.2769" gradientUnits="userSpaceOnUse">
<stop stop-color="#007C87"/>
<stop offset="1" stop-color="#00C795"/>
</linearGradient>
<linearGradient id="paint17_linear_1_2211" x1="866.869" y1="107.412" x2="866.869" y2="25.1608" gradientUnits="userSpaceOnUse">
<stop stop-color="#FF2A00"/>
<stop offset="1" stop-color="#FF6A00"/>
</linearGradient>
<linearGradient id="paint18_linear_1_2211" x1="831.24" y1="102.26" x2="831.24" y2="-0.00032914" gradientUnits="userSpaceOnUse">
<stop stop-color="#007C87"/>
<stop offset="1" stop-color="#00C795"/>
</linearGradient>
<linearGradient id="paint19_linear_1_2211" x1="795.612" y1="103.653" x2="795.612" y2="18.9" gradientUnits="userSpaceOnUse">
<stop stop-color="#007C87"/>
<stop offset="1" stop-color="#00C795"/>
</linearGradient>
<linearGradient id="paint20_linear_1_2211" x1="759.983" y1="109.165" x2="759.983" y2="62.4809" gradientUnits="userSpaceOnUse">
<stop stop-color="#007C87"/>
<stop offset="1" stop-color="#00C795"/>
</linearGradient>
<linearGradient id="paint21_linear_1_2211" x1="724.354" y1="108.297" x2="724.354" y2="39.939" gradientUnits="userSpaceOnUse">
<stop stop-color="#FF2A00"/>
<stop offset="1" stop-color="#FF6A00"/>
</linearGradient>
<linearGradient id="paint22_linear_1_2211" x1="688.726" y1="148.876" x2="688.726" y2="28.8323" gradientUnits="userSpaceOnUse">
<stop stop-color="#007C87"/>
<stop offset="1" stop-color="#00C795"/>
</linearGradient>
<linearGradient id="paint23_linear_1_2211" x1="653.097" y1="206.271" x2="653.097" y2="23.9823" gradientUnits="userSpaceOnUse">
<stop stop-color="#007C87"/>
<stop offset="1" stop-color="#00C795"/>
</linearGradient>
<linearGradient id="paint24_linear_1_2211" x1="617.469" y1="304.253" x2="617.469" y2="48.6037" gradientUnits="userSpaceOnUse">
<stop stop-color="#007C87"/>
<stop offset="1" stop-color="#00C795"/>
</linearGradient>
<linearGradient id="paint25_linear_1_2211" x1="581.84" y1="262.251" x2="581.84" y2="159.992" gradientUnits="userSpaceOnUse">
<stop stop-color="#FF2A00"/>
<stop offset="1" stop-color="#FF6A00"/>
</linearGradient>
<linearGradient id="paint26_linear_1_2211" x1="546.211" y1="253.628" x2="546.211" y2="133.584" gradientUnits="userSpaceOnUse">
<stop stop-color="#FF2A00"/>
<stop offset="1" stop-color="#FF6A00"/>
</linearGradient>
<linearGradient id="paint27_linear_1_2211" x1="510.582" y1="223.196" x2="510.582" y2="113.156" gradientUnits="userSpaceOnUse">
<stop stop-color="#FF2A00"/>
<stop offset="1" stop-color="#FF6A00"/>
</linearGradient>
<linearGradient id="paint28_linear_1_2211" x1="474.953" y1="235.44" x2="474.953" y2="115.396" gradientUnits="userSpaceOnUse">
<stop stop-color="#FF2A00"/>
<stop offset="1" stop-color="#FF6A00"/>
</linearGradient>
<linearGradient id="paint29_linear_1_2211" x1="439.325" y1="165.571" x2="439.325" y2="112.959" gradientUnits="userSpaceOnUse">
<stop stop-color="#007C87"/>
<stop offset="1" stop-color="#00C795"/>
</linearGradient>
<linearGradient id="paint30_linear_1_2211" x1="403.696" y1="210.835" x2="403.696" y2="98.5714" gradientUnits="userSpaceOnUse">
<stop stop-color="#007C87"/>
<stop offset="1" stop-color="#00C795"/>
</linearGradient>
<linearGradient id="paint31_linear_1_2211" x1="368.067" y1="205.648" x2="368.067" y2="155.629" gradientUnits="userSpaceOnUse">
<stop stop-color="#007C87"/>
<stop offset="1" stop-color="#00C795"/>
</linearGradient>
<linearGradient id="paint32_linear_1_2211" x1="332.438" y1="243.423" x2="332.438" y2="147.832" gradientUnits="userSpaceOnUse">
<stop stop-color="#FF2A00"/>
<stop offset="1" stop-color="#FF6A00"/>
</linearGradient>
<linearGradient id="paint33_linear_1_2211" x1="296.809" y1="282.932" x2="296.809" y2="140.658" gradientUnits="userSpaceOnUse">
<stop stop-color="#007C87"/>
<stop offset="1" stop-color="#00C795"/>
</linearGradient>
<linearGradient id="paint34_linear_1_2211" x1="261.181" y1="283.448" x2="261.181" y2="191.563" gradientUnits="userSpaceOnUse">
<stop stop-color="#FF2A00"/>
<stop offset="1" stop-color="#FF6A00"/>
</linearGradient>
<linearGradient id="paint35_linear_1_2211" x1="225.552" y1="263.307" x2="225.552" y2="229.22" gradientUnits="userSpaceOnUse">
<stop stop-color="#007C87"/>
<stop offset="1" stop-color="#00C795"/>
</linearGradient>
<linearGradient id="paint36_linear_1_2211" x1="189.924" y1="343.358" x2="189.924" y2="138.838" gradientUnits="userSpaceOnUse">
<stop stop-color="#007C87"/>
<stop offset="1" stop-color="#00C795"/>
</linearGradient>
<linearGradient id="paint37_linear_1_2211" x1="154.295" y1="261.779" x2="154.295" y2="192.124" gradientUnits="userSpaceOnUse">
<stop stop-color="#FF2A00"/>
<stop offset="1" stop-color="#FF6A00"/>
</linearGradient>
<linearGradient id="paint38_linear_1_2211" x1="118.666" y1="314.347" x2="118.666" y2="175.036" gradientUnits="userSpaceOnUse">
<stop stop-color="#FF2A00"/>
<stop offset="1" stop-color="#FF6A00"/>
</linearGradient>
<linearGradient id="paint39_linear_1_2211" x1="83.0379" y1="329.235" x2="83.0379" y2="188.441" gradientUnits="userSpaceOnUse">
<stop stop-color="#FF2A00"/>
<stop offset="1" stop-color="#FF6A00"/>
</linearGradient>
<linearGradient id="paint40_linear_1_2211" x1="47.4123" y1="276.263" x2="47.4123" y2="184.377" gradientUnits="userSpaceOnUse">
<stop stop-color="#FF2A00"/>
<stop offset="1" stop-color="#FF6A00"/>
</linearGradient>
<linearGradient id="paint41_linear_1_2211" x1="11.783" y1="251.428" x2="11.783" y2="223.583" gradientUnits="userSpaceOnUse">
<stop stop-color="#007C87"/>
<stop offset="1" stop-color="#00C795"/>
</linearGradient>
<linearGradient id="paint42_linear_1_2211" x1="1472.55" y1="65.5005" x2="1472.55" y2="50.9055" gradientUnits="userSpaceOnUse">
<stop stop-color="#007C87"/>
<stop offset="1" stop-color="#00C795"/>
</linearGradient>
<linearGradient id="paint43_linear_1_2211" x1="1436.93" y1="83.9145" x2="1436.93" y2="70.2171" gradientUnits="userSpaceOnUse">
<stop stop-color="#007C87"/>
<stop offset="1" stop-color="#00C795"/>
</linearGradient>
<linearGradient id="paint44_linear_1_2211" x1="1401.3" y1="89.5283" x2="1401.3" y2="65.5006" gradientUnits="userSpaceOnUse">
<stop stop-color="#FF2A00"/>
<stop offset="1" stop-color="#FF6A00"/>
</linearGradient>
<linearGradient id="paint45_linear_1_2211" x1="1365.67" y1="101.878" x2="1365.67" y2="81.1074" gradientUnits="userSpaceOnUse">
<stop stop-color="#007C87"/>
<stop offset="1" stop-color="#00C795"/>
</linearGradient>
<linearGradient id="paint46_linear_1_2211" x1="1330.04" y1="159.812" x2="1330.04" y2="132.417" gradientUnits="userSpaceOnUse">
<stop stop-color="#007C87"/>
<stop offset="1" stop-color="#00C795"/>
</linearGradient>
<linearGradient id="paint47_linear_1_2211" x1="1294.41" y1="153.974" x2="1294.41" y2="134.213" gradientUnits="userSpaceOnUse">
<stop stop-color="#FF2A00"/>
<stop offset="1" stop-color="#FF6A00"/>
</linearGradient>
<linearGradient id="paint48_linear_1_2211" x1="1258.78" y1="144.094" x2="1258.78" y2="96.2643" gradientUnits="userSpaceOnUse">
<stop stop-color="#FF2A00"/>
<stop offset="1" stop-color="#FF6A00"/>
</linearGradient>
<linearGradient id="paint49_linear_1_2211" x1="1223.15" y1="108.615" x2="1223.15" y2="74.5949" gradientUnits="userSpaceOnUse">
<stop stop-color="#007C87"/>
<stop offset="1" stop-color="#00C795"/>
</linearGradient>
<linearGradient id="paint50_linear_1_2211" x1="1187.52" y1="81.1074" x2="1187.52" y2="68.0827" gradientUnits="userSpaceOnUse">
<stop stop-color="#FF2A00"/>
<stop offset="1" stop-color="#FF6A00"/>
</linearGradient>
<linearGradient id="paint51_linear_1_2211" x1="1151.9" y1="77.1775" x2="1151.9" y2="58.9895" gradientUnits="userSpaceOnUse">
<stop stop-color="#FF2A00"/>
<stop offset="1" stop-color="#FF6A00"/>
</linearGradient>
<linearGradient id="paint52_linear_1_2211" x1="1116.27" y1="84.4751" x2="1116.27" y2="58.9895" gradientUnits="userSpaceOnUse">
<stop stop-color="#007C87"/>
<stop offset="1" stop-color="#00C795"/>
</linearGradient>
<linearGradient id="paint53_linear_1_2211" x1="1080.64" y1="107.042" x2="1080.64" y2="90.8749" gradientUnits="userSpaceOnUse">
<stop stop-color="#007C87"/>
<stop offset="1" stop-color="#00C795"/>
</linearGradient>
<linearGradient id="paint54_linear_1_2211" x1="1045.01" y1="107.042" x2="1045.01" y2="78.7498" gradientUnits="userSpaceOnUse">
<stop stop-color="#FF2A00"/>
<stop offset="1" stop-color="#FF6A00"/>
</linearGradient>
<linearGradient id="paint55_linear_1_2211" x1="1009.38" y1="92.8957" x2="1009.38" y2="84.4751" gradientUnits="userSpaceOnUse">
<stop stop-color="#FF2A00"/>
<stop offset="1" stop-color="#FF6A00"/>
</linearGradient>
<linearGradient id="paint56_linear_1_2211" x1="973.752" y1="81.1073" x2="973.752" y2="69.4862" gradientUnits="userSpaceOnUse">
<stop stop-color="#FF2A00"/>
<stop offset="1" stop-color="#FF6A00"/>
</linearGradient>
<linearGradient id="paint57_linear_1_2211" x1="938.123" y1="81.1074" x2="938.123" y2="57.8662" gradientUnits="userSpaceOnUse">
<stop stop-color="#007C87"/>
<stop offset="1" stop-color="#00C795"/>
</linearGradient>
<linearGradient id="paint58_linear_1_2211" x1="902.494" y1="66.6237" x2="902.494" y2="45.0671" gradientUnits="userSpaceOnUse">
<stop stop-color="#007C87"/>
<stop offset="1" stop-color="#00C795"/>
</linearGradient>
<linearGradient id="paint59_linear_1_2211" x1="866.869" y1="78.7499" x2="866.869" y2="53.8246" gradientUnits="userSpaceOnUse">
<stop stop-color="#FF2A00"/>
<stop offset="1" stop-color="#FF6A00"/>
</linearGradient>
<linearGradient id="paint60_linear_1_2211" x1="831.241" y1="66.6237" x2="831.241" y2="35.6356" gradientUnits="userSpaceOnUse">
<stop stop-color="#007C87"/>
<stop offset="1" stop-color="#00C795"/>
</linearGradient>
<linearGradient id="paint61_linear_1_2211" x1="795.612" y1="74.1181" x2="795.612" y2="48.4357" gradientUnits="userSpaceOnUse">
<stop stop-color="#007C87"/>
<stop offset="1" stop-color="#00C795"/>
</linearGradient>
<linearGradient id="paint62_linear_1_2211" x1="759.983" y1="92.8955" x2="759.983" y2="78.7498" gradientUnits="userSpaceOnUse">
<stop stop-color="#007C87"/>
<stop offset="1" stop-color="#00C795"/>
</linearGradient>
<linearGradient id="paint63_linear_1_2211" x1="724.354" y1="84.4751" x2="724.354" y2="63.7603" gradientUnits="userSpaceOnUse">
<stop stop-color="#FF2A00"/>
<stop offset="1" stop-color="#FF6A00"/>
</linearGradient>
<linearGradient id="paint64_linear_1_2211" x1="688.725" y1="107.042" x2="688.725" y2="70.665" gradientUnits="userSpaceOnUse">
<stop stop-color="#007C87"/>
<stop offset="1" stop-color="#00C795"/>
</linearGradient>
<linearGradient id="paint65_linear_1_2211" x1="653.096" y1="142.746" x2="653.096" y2="87.5065" gradientUnits="userSpaceOnUse">
<stop stop-color="#007C87"/>
<stop offset="1" stop-color="#00C795"/>
</linearGradient>
<linearGradient id="paint66_linear_1_2211" x1="617.468" y1="215.162" x2="617.468" y2="137.694" gradientUnits="userSpaceOnUse">
<stop stop-color="#007C87"/>
<stop offset="1" stop-color="#00C795"/>
</linearGradient>
<linearGradient id="paint67_linear_1_2211" x1="581.839" y1="226.615" x2="581.839" y2="195.628" gradientUnits="userSpaceOnUse">
<stop stop-color="#FF2A00"/>
<stop offset="1" stop-color="#FF6A00"/>
</linearGradient>
<linearGradient id="paint68_linear_1_2211" x1="546.21" y1="211.795" x2="546.21" y2="175.418" gradientUnits="userSpaceOnUse">
<stop stop-color="#FF2A00"/>
<stop offset="1" stop-color="#FF6A00"/>
</linearGradient>
<linearGradient id="paint69_linear_1_2211" x1="510.581" y1="184.849" x2="510.581" y2="151.504" gradientUnits="userSpaceOnUse">
<stop stop-color="#FF2A00"/>
<stop offset="1" stop-color="#FF6A00"/>
</linearGradient>
<linearGradient id="paint70_linear_1_2211" x1="474.953" y1="193.606" x2="474.953" y2="157.23" gradientUnits="userSpaceOnUse">
<stop stop-color="#FF2A00"/>
<stop offset="1" stop-color="#FF6A00"/>
</linearGradient>
<linearGradient id="paint71_linear_1_2211" x1="439.325" y1="147.237" x2="439.325" y2="131.294" gradientUnits="userSpaceOnUse">
<stop stop-color="#007C87"/>
<stop offset="1" stop-color="#00C795"/>
</linearGradient>
<linearGradient id="paint72_linear_1_2211" x1="403.696" y1="171.712" x2="403.696" y2="137.694" gradientUnits="userSpaceOnUse">
<stop stop-color="#007C87"/>
<stop offset="1" stop-color="#00C795"/>
</linearGradient>
<linearGradient id="paint73_linear_1_2211" x1="368.067" y1="188.217" x2="368.067" y2="173.06" gradientUnits="userSpaceOnUse">
<stop stop-color="#007C87"/>
<stop offset="1" stop-color="#00C795"/>
</linearGradient>
<linearGradient id="paint74_linear_1_2211" x1="332.438" y1="210.11" x2="332.438" y2="181.144" gradientUnits="userSpaceOnUse">
<stop stop-color="#FF2A00"/>
<stop offset="1" stop-color="#FF6A00"/>
</linearGradient>
<linearGradient id="paint75_linear_1_2211" x1="296.809" y1="233.352" x2="296.809" y2="190.239" gradientUnits="userSpaceOnUse">
<stop stop-color="#007C87"/>
<stop offset="1" stop-color="#00C795"/>
</linearGradient>
<linearGradient id="paint76_linear_1_2211" x1="261.181" y1="251.428" x2="261.181" y2="223.583" gradientUnits="userSpaceOnUse">
<stop stop-color="#FF2A00"/>
<stop offset="1" stop-color="#FF6A00"/>
</linearGradient>
<linearGradient id="paint77_linear_1_2211" x1="225.552" y1="251.428" x2="225.552" y2="241.098" gradientUnits="userSpaceOnUse">
<stop stop-color="#007C87"/>
<stop offset="1" stop-color="#00C795"/>
</linearGradient>
<linearGradient id="paint78_linear_1_2211" x1="189.923" y1="272.087" x2="189.923" y2="210.11" gradientUnits="userSpaceOnUse">
<stop stop-color="#007C87"/>
<stop offset="1" stop-color="#00C795"/>
</linearGradient>
<linearGradient id="paint79_linear_1_2211" x1="154.294" y1="237.505" x2="154.294" y2="216.398" gradientUnits="userSpaceOnUse">
<stop stop-color="#FF2A00"/>
<stop offset="1" stop-color="#FF6A00"/>
</linearGradient>
<linearGradient id="paint80_linear_1_2211" x1="118.665" y1="265.799" x2="118.665" y2="223.583" gradientUnits="userSpaceOnUse">
<stop stop-color="#FF2A00"/>
<stop offset="1" stop-color="#FF6A00"/>
</linearGradient>
<linearGradient id="paint81_linear_1_2211" x1="83.0375" y1="280.171" x2="83.0375" y2="237.505" gradientUnits="userSpaceOnUse">
<stop stop-color="#FF2A00"/>
<stop offset="1" stop-color="#FF6A00"/>
</linearGradient>
<linearGradient id="paint82_linear_1_2211" x1="47.4119" y1="244.242" x2="47.4119" y2="216.398" gradientUnits="userSpaceOnUse">
<stop stop-color="#FF2A00"/>
<stop offset="1" stop-color="#FF6A00"/>
</linearGradient>
</defs>
</svg>
