<svg width="1261" height="292" viewBox="0 0 1261 292" fill="none" xmlns="http://www.w3.org/2000/svg">
<g opacity="0.12">
<path d="M11.0019 162.665H9.00391V240.688H11.0019V162.665Z" fill="url(#paint0_linear_1_4418)"/>
<path d="M1221.16 46.2495H1219.16V84.6331H1221.16V46.2495Z" fill="url(#paint1_linear_1_4418)"/>
<path d="M1190.91 32.1567H1188.91V99.4834H1190.91V32.1567Z" fill="url(#paint2_linear_1_4418)"/>
<path d="M1160.65 48.5879H1158.66V106.793H1160.65V48.5879Z" fill="url(#paint3_linear_1_4418)"/>
<path d="M1130.4 85.6875H1128.4V162.455H1130.4V85.6875Z" fill="url(#paint4_linear_1_4418)"/>
<path d="M1100.14 94.6704H1098.15V150.045H1100.14V94.6704Z" fill="url(#paint5_linear_1_4418)"/>
<path d="M1069.89 35.0366H1067.89V169.062H1069.89V35.0366Z" fill="url(#paint6_linear_1_4418)"/>
<path d="M1039.64 30.1216H1037.64V125.451H1039.64V30.1216Z" fill="url(#paint7_linear_1_4418)"/>
<path d="M1009.38 45.0957H1007.38V81.5924H1009.38V45.0957Z" fill="url(#paint8_linear_1_4418)"/>
<path d="M979.131 32.3301H977.133V83.2968H979.131V32.3301Z" fill="url(#paint9_linear_1_4418)"/>
<path d="M948.875 25.2031H946.877V96.6221H948.875V25.2031Z" fill="url(#paint10_linear_1_4418)"/>
<path d="M918.619 61.3784H916.621V106.681H918.619V61.3784Z" fill="url(#paint11_linear_1_4418)"/>
<path d="M888.368 39.2402H886.37V118.522H888.368V39.2402Z" fill="url(#paint12_linear_1_4418)"/>
<path d="M858.112 63.5093H856.114V87.1042H858.112V63.5093Z" fill="url(#paint13_linear_1_4418)"/>
<path d="M827.856 47.6567H825.858V80.2189H827.856V47.6567Z" fill="url(#paint14_linear_1_4418)"/>
<path d="M797.606 26.4404H795.608V91.5647H797.606V26.4404Z" fill="url(#paint15_linear_1_4418)"/>
<path d="M767.351 17.2168H765.353V77.6239H767.351V17.2168Z" fill="url(#paint16_linear_1_4418)"/>
<path d="M737.1 21.3643H735.102V91.2087H737.1V21.3643Z" fill="url(#paint17_linear_1_4418)"/>
<path d="M706.844 0H704.846V86.8354H706.844V0Z" fill="url(#paint18_linear_1_4418)"/>
<path d="M676.593 16.0474H674.595V88.0169H676.593V16.0474Z" fill="url(#paint19_linear_1_4418)"/>
<path d="M646.338 53.0547H644.34V92.6972H646.338V53.0547Z" fill="url(#paint20_linear_1_4418)"/>
<path d="M616.082 33.9136H614.084V91.9606H616.082V33.9136Z" fill="url(#paint21_linear_1_4418)"/>
<path d="M585.826 24.4829H583.828V126.419H585.826V24.4829Z" fill="url(#paint22_linear_1_4418)"/>
<path d="M555.575 20.3652H553.577V175.155H555.575V20.3652Z" fill="url(#paint23_linear_1_4418)"/>
<path d="M525.319 41.2725H523.321V258.356H525.319V41.2725Z" fill="url(#paint24_linear_1_4418)"/>
<path d="M495.063 135.856H493.065V222.689H495.063V135.856Z" fill="url(#paint25_linear_1_4418)"/>
<path d="M464.812 113.434H462.814V215.37H464.812V113.434Z" fill="url(#paint26_linear_1_4418)"/>
<path d="M434.558 96.0869H432.56V189.526H434.558V96.0869Z" fill="url(#paint27_linear_1_4418)"/>
<path d="M404.302 97.9897H402.304V199.926H404.302V97.9897Z" fill="url(#paint28_linear_1_4418)"/>
<path d="M374.051 95.9199H372.053V140.595H374.051V95.9199Z" fill="url(#paint29_linear_1_4418)"/>
<path d="M343.795 83.7017H341.797V179.031H343.795V83.7017Z" fill="url(#paint30_linear_1_4418)"/>
<path d="M313.539 132.154H311.541V174.627H313.539V132.154Z" fill="url(#paint31_linear_1_4418)"/>
<path d="M283.289 125.531H281.291V206.703H283.289V125.531Z" fill="url(#paint32_linear_1_4418)"/>
<path d="M253.033 119.441H251.035V240.252H253.033V119.441Z" fill="url(#paint33_linear_1_4418)"/>
<path d="M222.777 162.665H220.779V240.688H222.777V162.665Z" fill="url(#paint34_linear_1_4418)"/>
<path d="M192.526 194.643H190.528V223.589H192.526V194.643Z" fill="url(#paint35_linear_1_4418)"/>
<path d="M162.27 117.894H160.272V291.562H162.27V117.894Z" fill="url(#paint36_linear_1_4418)"/>
<path d="M132.019 163.142H130.021V222.29H132.019V163.142Z" fill="url(#paint37_linear_1_4418)"/>
<path d="M101.765 148.631H99.7666V266.928H101.765V148.631Z" fill="url(#paint38_linear_1_4418)"/>
<path d="M71.5088 160.014H69.5107V279.569H71.5088V160.014Z" fill="url(#paint39_linear_1_4418)"/>
<path d="M41.2578 156.565H39.2598V234.588H41.2578V156.565Z" fill="url(#paint40_linear_1_4418)"/>
<path d="M20.0102 189.854H0V213.499H20.0102V189.854Z" fill="url(#paint41_linear_1_4418)"/>
<path d="M1260.42 43.2275H1240.41V55.622H1260.42V43.2275Z" fill="url(#paint42_linear_1_4418)"/>
<path d="M1230.17 59.6245H1210.16V71.255H1230.17V59.6245Z" fill="url(#paint43_linear_1_4418)"/>
<path d="M1199.91 55.6187H1179.9V76.0214H1199.91V55.6187Z" fill="url(#paint44_linear_1_4418)"/>
<path d="M1169.66 68.873H1149.65V86.5105H1169.66V68.873Z" fill="url(#paint45_linear_1_4418)"/>
<path d="M1139.41 112.441H1119.4V135.705H1139.41V112.441Z" fill="url(#paint46_linear_1_4418)"/>
<path d="M1109.15 113.966H1089.14V130.746H1109.15V113.966Z" fill="url(#paint47_linear_1_4418)"/>
<path d="M1078.9 81.7441H1058.89V122.358H1078.9V81.7441Z" fill="url(#paint48_linear_1_4418)"/>
<path d="M1048.64 63.3423H1028.63V92.2297H1048.64V63.3423Z" fill="url(#paint49_linear_1_4418)"/>
<path d="M1018.39 57.812H998.379V68.8733H1018.39V57.812Z" fill="url(#paint50_linear_1_4418)"/>
<path d="M988.133 50.0913H968.123V65.5357H988.133V50.0913Z" fill="url(#paint51_linear_1_4418)"/>
<path d="M957.883 50.0913H937.873V71.7313H957.883V50.0913Z" fill="url(#paint52_linear_1_4418)"/>
<path d="M927.627 77.166H907.617V90.8936H927.627V77.166Z" fill="url(#paint53_linear_1_4418)"/>
<path d="M897.372 66.8716H877.361V90.8965H897.372V66.8716Z" fill="url(#paint54_linear_1_4418)"/>
<path d="M867.121 71.7314H847.11V78.8829H867.121V71.7314Z" fill="url(#paint55_linear_1_4418)"/>
<path d="M836.865 59.0024H816.854V68.8697H836.865V59.0024Z" fill="url(#paint56_linear_1_4418)"/>
<path d="M806.609 49.1387H786.599V68.8733H806.609V49.1387Z" fill="url(#paint57_linear_1_4418)"/>
<path d="M776.358 38.269H756.348V56.5746H776.358V38.269Z" fill="url(#paint58_linear_1_4418)"/>
<path d="M746.108 45.7051H726.098V66.8719H746.108V45.7051Z" fill="url(#paint59_linear_1_4418)"/>
<path d="M715.852 30.2607H695.842V56.5746H715.852V30.2607Z" fill="url(#paint60_linear_1_4418)"/>
<path d="M685.596 41.1304H665.586V62.9374H685.596V41.1304Z" fill="url(#paint61_linear_1_4418)"/>
<path d="M655.345 66.8716H635.335V78.8825H655.345V66.8716Z" fill="url(#paint62_linear_1_4418)"/>
<path d="M625.089 54.1436H605.079V71.7346H625.089V54.1436Z" fill="url(#paint63_linear_1_4418)"/>
<path d="M594.834 60.0049H574.824V90.8936H594.834V60.0049Z" fill="url(#paint64_linear_1_4418)"/>
<path d="M564.584 74.3047H544.573V121.21H564.584V74.3047Z" fill="url(#paint65_linear_1_4418)"/>
<path d="M534.328 116.923H514.317V182.706H534.328V116.923Z" fill="url(#paint66_linear_1_4418)"/>
<path d="M504.072 166.117H484.062V192.431H504.072V166.117Z" fill="url(#paint67_linear_1_4418)"/>
<path d="M473.821 148.956H453.811V179.845H473.821V148.956Z" fill="url(#paint68_linear_1_4418)"/>
<path d="M443.565 128.649H423.555V156.965H443.565V128.649Z" fill="url(#paint69_linear_1_4418)"/>
<path d="M413.309 133.512H393.299V164.4H413.309V133.512Z" fill="url(#paint70_linear_1_4418)"/>
<path d="M383.054 111.488H363.044V125.027H383.054V111.488Z" fill="url(#paint71_linear_1_4418)"/>
<path d="M352.803 116.923H332.793V145.81H352.803V116.923Z" fill="url(#paint72_linear_1_4418)"/>
<path d="M322.547 146.955H302.537V159.825H322.547V146.955Z" fill="url(#paint73_linear_1_4418)"/>
<path d="M292.292 153.819H272.281V178.416H292.292V153.819Z" fill="url(#paint74_linear_1_4418)"/>
<path d="M262.041 161.539H242.03V198.147H262.041V161.539Z" fill="url(#paint75_linear_1_4418)"/>
<path d="M231.786 189.854H211.775V213.499H231.786V189.854Z" fill="url(#paint76_linear_1_4418)"/>
<path d="M201.53 204.729H181.52V213.502H201.53V204.729Z" fill="url(#paint77_linear_1_4418)"/>
<path d="M171.279 178.416H151.269V231.044H171.279V178.416Z" fill="url(#paint78_linear_1_4418)"/>
<path d="M141.023 183.755H121.013V201.677H141.023V183.755Z" fill="url(#paint79_linear_1_4418)"/>
<path d="M110.767 189.854H90.7568V225.702H110.767V189.854Z" fill="url(#paint80_linear_1_4418)"/>
<path d="M80.5161 201.677H60.5059V237.904H80.5161V201.677Z" fill="url(#paint81_linear_1_4418)"/>
<path d="M50.2661 183.755H30.2559V207.399H50.2661V183.755Z" fill="url(#paint82_linear_1_4418)"/>
</g>
<defs>
<linearGradient id="paint0_linear_1_4418" x1="10.0058" y1="240.689" x2="10.0058" y2="162.665" gradientUnits="userSpaceOnUse">
<stop stop-color="#007C87"/>
<stop offset="1" stop-color="#00C795"/>
</linearGradient>
<linearGradient id="paint1_linear_1_4418" x1="1220.16" y1="84.6311" x2="1220.16" y2="46.2485" gradientUnits="userSpaceOnUse">
<stop stop-color="#007C87"/>
<stop offset="1" stop-color="#00C795"/>
</linearGradient>
<linearGradient id="paint2_linear_1_4418" x1="1189.91" y1="99.485" x2="1189.91" y2="32.1573" gradientUnits="userSpaceOnUse">
<stop stop-color="#FF2A00"/>
<stop offset="1" stop-color="#FF6A00"/>
</linearGradient>
<linearGradient id="paint3_linear_1_4418" x1="1159.65" y1="106.793" x2="1159.65" y2="48.5892" gradientUnits="userSpaceOnUse">
<stop stop-color="#007C87"/>
<stop offset="1" stop-color="#00C795"/>
</linearGradient>
<linearGradient id="paint4_linear_1_4418" x1="1129.4" y1="162.455" x2="1129.4" y2="85.689" gradientUnits="userSpaceOnUse">
<stop stop-color="#007C87"/>
<stop offset="1" stop-color="#00C795"/>
</linearGradient>
<linearGradient id="paint5_linear_1_4418" x1="1099.15" y1="150.043" x2="1099.15" y2="94.6699" gradientUnits="userSpaceOnUse">
<stop stop-color="#FF2A00"/>
<stop offset="1" stop-color="#FF6A00"/>
</linearGradient>
<linearGradient id="paint6_linear_1_4418" x1="1068.89" y1="169.063" x2="1068.89" y2="35.0369" gradientUnits="userSpaceOnUse">
<stop stop-color="#FF2A00"/>
<stop offset="1" stop-color="#FF6A00"/>
</linearGradient>
<linearGradient id="paint7_linear_1_4418" x1="1038.64" y1="125.45" x2="1038.64" y2="30.122" gradientUnits="userSpaceOnUse">
<stop stop-color="#007C87"/>
<stop offset="1" stop-color="#00C795"/>
</linearGradient>
<linearGradient id="paint8_linear_1_4418" x1="1008.38" y1="81.59" x2="1008.38" y2="45.0949" gradientUnits="userSpaceOnUse">
<stop stop-color="#FF2A00"/>
<stop offset="1" stop-color="#FF6A00"/>
</linearGradient>
<linearGradient id="paint9_linear_1_4418" x1="978.131" y1="83.2967" x2="978.131" y2="32.3291" gradientUnits="userSpaceOnUse">
<stop stop-color="#FF2A00"/>
<stop offset="1" stop-color="#FF6A00"/>
</linearGradient>
<linearGradient id="paint10_linear_1_4418" x1="947.877" y1="96.6201" x2="947.877" y2="25.202" gradientUnits="userSpaceOnUse">
<stop stop-color="#007C87"/>
<stop offset="1" stop-color="#00C795"/>
</linearGradient>
<linearGradient id="paint11_linear_1_4418" x1="917.622" y1="106.683" x2="917.622" y2="61.3787" gradientUnits="userSpaceOnUse">
<stop stop-color="#007C87"/>
<stop offset="1" stop-color="#00C795"/>
</linearGradient>
<linearGradient id="paint12_linear_1_4418" x1="887.368" y1="118.524" x2="887.368" y2="39.2405" gradientUnits="userSpaceOnUse">
<stop stop-color="#FF2A00"/>
<stop offset="1" stop-color="#FF6A00"/>
</linearGradient>
<linearGradient id="paint13_linear_1_4418" x1="857.114" y1="87.1051" x2="857.114" y2="63.5092" gradientUnits="userSpaceOnUse">
<stop stop-color="#FF2A00"/>
<stop offset="1" stop-color="#FF6A00"/>
</linearGradient>
<linearGradient id="paint14_linear_1_4418" x1="826.86" y1="80.2192" x2="826.86" y2="47.657" gradientUnits="userSpaceOnUse">
<stop stop-color="#FF2A00"/>
<stop offset="1" stop-color="#FF6A00"/>
</linearGradient>
<linearGradient id="paint15_linear_1_4418" x1="796.606" y1="91.567" x2="796.606" y2="26.4419" gradientUnits="userSpaceOnUse">
<stop stop-color="#007C87"/>
<stop offset="1" stop-color="#00C795"/>
</linearGradient>
<linearGradient id="paint16_linear_1_4418" x1="766.352" y1="77.6242" x2="766.352" y2="17.2183" gradientUnits="userSpaceOnUse">
<stop stop-color="#007C87"/>
<stop offset="1" stop-color="#00C795"/>
</linearGradient>
<linearGradient id="paint17_linear_1_4418" x1="736.101" y1="91.2089" x2="736.101" y2="21.365" gradientUnits="userSpaceOnUse">
<stop stop-color="#FF2A00"/>
<stop offset="1" stop-color="#FF6A00"/>
</linearGradient>
<linearGradient id="paint18_linear_1_4418" x1="705.847" y1="86.8338" x2="705.847" y2="-0.000279489" gradientUnits="userSpaceOnUse">
<stop stop-color="#007C87"/>
<stop offset="1" stop-color="#00C795"/>
</linearGradient>
<linearGradient id="paint19_linear_1_4418" x1="675.592" y1="88.0172" x2="675.592" y2="16.0489" gradientUnits="userSpaceOnUse">
<stop stop-color="#007C87"/>
<stop offset="1" stop-color="#00C795"/>
</linearGradient>
<linearGradient id="paint20_linear_1_4418" x1="645.339" y1="92.6973" x2="645.339" y2="53.0557" gradientUnits="userSpaceOnUse">
<stop stop-color="#007C87"/>
<stop offset="1" stop-color="#00C795"/>
</linearGradient>
<linearGradient id="paint21_linear_1_4418" x1="615.085" y1="91.9603" x2="615.085" y2="33.914" gradientUnits="userSpaceOnUse">
<stop stop-color="#FF2A00"/>
<stop offset="1" stop-color="#FF6A00"/>
</linearGradient>
<linearGradient id="paint22_linear_1_4418" x1="584.831" y1="126.418" x2="584.831" y2="24.4832" gradientUnits="userSpaceOnUse">
<stop stop-color="#007C87"/>
<stop offset="1" stop-color="#00C795"/>
</linearGradient>
<linearGradient id="paint23_linear_1_4418" x1="554.576" y1="175.155" x2="554.576" y2="20.3643" gradientUnits="userSpaceOnUse">
<stop stop-color="#007C87"/>
<stop offset="1" stop-color="#00C795"/>
</linearGradient>
<linearGradient id="paint24_linear_1_4418" x1="524.322" y1="258.356" x2="524.322" y2="41.2716" gradientUnits="userSpaceOnUse">
<stop stop-color="#007C87"/>
<stop offset="1" stop-color="#00C795"/>
</linearGradient>
<linearGradient id="paint25_linear_1_4418" x1="494.068" y1="222.69" x2="494.068" y2="135.857" gradientUnits="userSpaceOnUse">
<stop stop-color="#FF2A00"/>
<stop offset="1" stop-color="#FF6A00"/>
</linearGradient>
<linearGradient id="paint26_linear_1_4418" x1="463.814" y1="215.368" x2="463.814" y2="113.432" gradientUnits="userSpaceOnUse">
<stop stop-color="#FF2A00"/>
<stop offset="1" stop-color="#FF6A00"/>
</linearGradient>
<linearGradient id="paint27_linear_1_4418" x1="433.56" y1="189.526" x2="433.56" y2="96.0858" gradientUnits="userSpaceOnUse">
<stop stop-color="#FF2A00"/>
<stop offset="1" stop-color="#FF6A00"/>
</linearGradient>
<linearGradient id="paint28_linear_1_4418" x1="403.306" y1="199.924" x2="403.306" y2="97.9884" gradientUnits="userSpaceOnUse">
<stop stop-color="#FF2A00"/>
<stop offset="1" stop-color="#FF6A00"/>
</linearGradient>
<linearGradient id="paint29_linear_1_4418" x1="373.052" y1="140.594" x2="373.052" y2="95.9188" gradientUnits="userSpaceOnUse">
<stop stop-color="#007C87"/>
<stop offset="1" stop-color="#00C795"/>
</linearGradient>
<linearGradient id="paint30_linear_1_4418" x1="342.798" y1="179.03" x2="342.798" y2="83.7015" gradientUnits="userSpaceOnUse">
<stop stop-color="#007C87"/>
<stop offset="1" stop-color="#00C795"/>
</linearGradient>
<linearGradient id="paint31_linear_1_4418" x1="312.543" y1="174.625" x2="312.543" y2="132.152" gradientUnits="userSpaceOnUse">
<stop stop-color="#007C87"/>
<stop offset="1" stop-color="#00C795"/>
</linearGradient>
<linearGradient id="paint32_linear_1_4418" x1="282.29" y1="206.702" x2="282.29" y2="125.532" gradientUnits="userSpaceOnUse">
<stop stop-color="#FF2A00"/>
<stop offset="1" stop-color="#FF6A00"/>
</linearGradient>
<linearGradient id="paint33_linear_1_4418" x1="252.036" y1="240.252" x2="252.036" y2="119.44" gradientUnits="userSpaceOnUse">
<stop stop-color="#007C87"/>
<stop offset="1" stop-color="#00C795"/>
</linearGradient>
<linearGradient id="paint34_linear_1_4418" x1="221.782" y1="240.689" x2="221.782" y2="162.665" gradientUnits="userSpaceOnUse">
<stop stop-color="#FF2A00"/>
<stop offset="1" stop-color="#FF6A00"/>
</linearGradient>
<linearGradient id="paint35_linear_1_4418" x1="191.527" y1="223.586" x2="191.527" y2="194.641" gradientUnits="userSpaceOnUse">
<stop stop-color="#007C87"/>
<stop offset="1" stop-color="#00C795"/>
</linearGradient>
<linearGradient id="paint36_linear_1_4418" x1="161.273" y1="291.562" x2="161.273" y2="117.894" gradientUnits="userSpaceOnUse">
<stop stop-color="#007C87"/>
<stop offset="1" stop-color="#00C795"/>
</linearGradient>
<linearGradient id="paint37_linear_1_4418" x1="131.019" y1="222.289" x2="131.019" y2="163.142" gradientUnits="userSpaceOnUse">
<stop stop-color="#FF2A00"/>
<stop offset="1" stop-color="#FF6A00"/>
</linearGradient>
<linearGradient id="paint38_linear_1_4418" x1="100.766" y1="266.927" x2="100.766" y2="148.631" gradientUnits="userSpaceOnUse">
<stop stop-color="#FF2A00"/>
<stop offset="1" stop-color="#FF6A00"/>
</linearGradient>
<linearGradient id="paint39_linear_1_4418" x1="70.5115" y1="279.569" x2="70.5115" y2="160.015" gradientUnits="userSpaceOnUse">
<stop stop-color="#FF2A00"/>
<stop offset="1" stop-color="#FF6A00"/>
</linearGradient>
<linearGradient id="paint40_linear_1_4418" x1="40.26" y1="234.588" x2="40.26" y2="156.564" gradientUnits="userSpaceOnUse">
<stop stop-color="#FF2A00"/>
<stop offset="1" stop-color="#FF6A00"/>
</linearGradient>
<linearGradient id="paint41_linear_1_4418" x1="10.0055" y1="213.5" x2="10.0055" y2="189.855" gradientUnits="userSpaceOnUse">
<stop stop-color="#007C87"/>
<stop offset="1" stop-color="#00C795"/>
</linearGradient>
<linearGradient id="paint42_linear_1_4418" x1="1250.42" y1="55.6198" x2="1250.42" y2="43.2265" gradientUnits="userSpaceOnUse">
<stop stop-color="#007C87"/>
<stop offset="1" stop-color="#00C795"/>
</linearGradient>
<linearGradient id="paint43_linear_1_4418" x1="1220.16" y1="71.2559" x2="1220.16" y2="59.6247" gradientUnits="userSpaceOnUse">
<stop stop-color="#007C87"/>
<stop offset="1" stop-color="#00C795"/>
</linearGradient>
<linearGradient id="paint44_linear_1_4418" x1="1189.91" y1="76.0227" x2="1189.91" y2="55.6196" gradientUnits="userSpaceOnUse">
<stop stop-color="#FF2A00"/>
<stop offset="1" stop-color="#FF6A00"/>
</linearGradient>
<linearGradient id="paint45_linear_1_4418" x1="1159.65" y1="86.5094" x2="1159.65" y2="68.8722" gradientUnits="userSpaceOnUse">
<stop stop-color="#007C87"/>
<stop offset="1" stop-color="#00C795"/>
</linearGradient>
<linearGradient id="paint46_linear_1_4418" x1="1129.4" y1="135.704" x2="1129.4" y2="112.442" gradientUnits="userSpaceOnUse">
<stop stop-color="#007C87"/>
<stop offset="1" stop-color="#00C795"/>
</linearGradient>
<linearGradient id="paint47_linear_1_4418" x1="1099.15" y1="130.746" x2="1099.15" y2="113.967" gradientUnits="userSpaceOnUse">
<stop stop-color="#FF2A00"/>
<stop offset="1" stop-color="#FF6A00"/>
</linearGradient>
<linearGradient id="paint48_linear_1_4418" x1="1068.89" y1="122.357" x2="1068.89" y2="81.7428" gradientUnits="userSpaceOnUse">
<stop stop-color="#FF2A00"/>
<stop offset="1" stop-color="#FF6A00"/>
</linearGradient>
<linearGradient id="paint49_linear_1_4418" x1="1038.64" y1="92.23" x2="1038.64" y2="63.3422" gradientUnits="userSpaceOnUse">
<stop stop-color="#007C87"/>
<stop offset="1" stop-color="#00C795"/>
</linearGradient>
<linearGradient id="paint50_linear_1_4418" x1="1008.38" y1="68.8725" x2="1008.38" y2="57.8126" gradientUnits="userSpaceOnUse">
<stop stop-color="#FF2A00"/>
<stop offset="1" stop-color="#FF6A00"/>
</linearGradient>
<linearGradient id="paint51_linear_1_4418" x1="978.13" y1="65.5352" x2="978.13" y2="50.0909" gradientUnits="userSpaceOnUse">
<stop stop-color="#FF2A00"/>
<stop offset="1" stop-color="#FF6A00"/>
</linearGradient>
<linearGradient id="paint52_linear_1_4418" x1="947.876" y1="71.7319" x2="947.876" y2="50.0909" gradientUnits="userSpaceOnUse">
<stop stop-color="#007C87"/>
<stop offset="1" stop-color="#00C795"/>
</linearGradient>
<linearGradient id="paint53_linear_1_4418" x1="917.622" y1="90.8949" x2="917.622" y2="77.1663" gradientUnits="userSpaceOnUse">
<stop stop-color="#007C87"/>
<stop offset="1" stop-color="#00C795"/>
</linearGradient>
<linearGradient id="paint54_linear_1_4418" x1="887.368" y1="90.8947" x2="887.368" y2="66.8702" gradientUnits="userSpaceOnUse">
<stop stop-color="#FF2A00"/>
<stop offset="1" stop-color="#FF6A00"/>
</linearGradient>
<linearGradient id="paint55_linear_1_4418" x1="857.114" y1="78.8824" x2="857.114" y2="71.7321" gradientUnits="userSpaceOnUse">
<stop stop-color="#FF2A00"/>
<stop offset="1" stop-color="#FF6A00"/>
</linearGradient>
<linearGradient id="paint56_linear_1_4418" x1="826.859" y1="68.872" x2="826.859" y2="59.004" gradientUnits="userSpaceOnUse">
<stop stop-color="#FF2A00"/>
<stop offset="1" stop-color="#FF6A00"/>
</linearGradient>
<linearGradient id="paint57_linear_1_4418" x1="796.605" y1="68.8725" x2="796.605" y2="49.1372" gradientUnits="userSpaceOnUse">
<stop stop-color="#007C87"/>
<stop offset="1" stop-color="#00C795"/>
</linearGradient>
<linearGradient id="paint58_linear_1_4418" x1="766.351" y1="56.5735" x2="766.351" y2="38.2688" gradientUnits="userSpaceOnUse">
<stop stop-color="#007C87"/>
<stop offset="1" stop-color="#00C795"/>
</linearGradient>
<linearGradient id="paint59_linear_1_4418" x1="736.101" y1="66.8705" x2="736.101" y2="45.7052" gradientUnits="userSpaceOnUse">
<stop stop-color="#FF2A00"/>
<stop offset="1" stop-color="#FF6A00"/>
</linearGradient>
<linearGradient id="paint60_linear_1_4418" x1="705.846" y1="56.5735" x2="705.846" y2="30.26" gradientUnits="userSpaceOnUse">
<stop stop-color="#007C87"/>
<stop offset="1" stop-color="#00C795"/>
</linearGradient>
<linearGradient id="paint61_linear_1_4418" x1="675.592" y1="62.9374" x2="675.592" y2="41.1293" gradientUnits="userSpaceOnUse">
<stop stop-color="#007C87"/>
<stop offset="1" stop-color="#00C795"/>
</linearGradient>
<linearGradient id="paint62_linear_1_4418" x1="645.338" y1="78.8819" x2="645.338" y2="66.8702" gradientUnits="userSpaceOnUse">
<stop stop-color="#007C87"/>
<stop offset="1" stop-color="#00C795"/>
</linearGradient>
<linearGradient id="paint63_linear_1_4418" x1="615.084" y1="71.7321" x2="615.084" y2="54.1422" gradientUnits="userSpaceOnUse">
<stop stop-color="#FF2A00"/>
<stop offset="1" stop-color="#FF6A00"/>
</linearGradient>
<linearGradient id="paint64_linear_1_4418" x1="584.83" y1="90.8949" x2="584.83" y2="60.0051" gradientUnits="userSpaceOnUse">
<stop stop-color="#007C87"/>
<stop offset="1" stop-color="#00C795"/>
</linearGradient>
<linearGradient id="paint65_linear_1_4418" x1="554.576" y1="121.212" x2="554.576" y2="74.3058" gradientUnits="userSpaceOnUse">
<stop stop-color="#007C87"/>
<stop offset="1" stop-color="#00C795"/>
</linearGradient>
<linearGradient id="paint66_linear_1_4418" x1="524.322" y1="182.705" x2="524.322" y2="116.922" gradientUnits="userSpaceOnUse">
<stop stop-color="#007C87"/>
<stop offset="1" stop-color="#00C795"/>
</linearGradient>
<linearGradient id="paint67_linear_1_4418" x1="494.068" y1="192.43" x2="494.068" y2="166.117" gradientUnits="userSpaceOnUse">
<stop stop-color="#FF2A00"/>
<stop offset="1" stop-color="#FF6A00"/>
</linearGradient>
<linearGradient id="paint68_linear_1_4418" x1="463.813" y1="179.845" x2="463.813" y2="148.956" gradientUnits="userSpaceOnUse">
<stop stop-color="#FF2A00"/>
<stop offset="1" stop-color="#FF6A00"/>
</linearGradient>
<linearGradient id="paint69_linear_1_4418" x1="433.559" y1="156.965" x2="433.559" y2="128.649" gradientUnits="userSpaceOnUse">
<stop stop-color="#FF2A00"/>
<stop offset="1" stop-color="#FF6A00"/>
</linearGradient>
<linearGradient id="paint70_linear_1_4418" x1="403.305" y1="164.4" x2="403.305" y2="133.511" gradientUnits="userSpaceOnUse">
<stop stop-color="#FF2A00"/>
<stop offset="1" stop-color="#FF6A00"/>
</linearGradient>
<linearGradient id="paint71_linear_1_4418" x1="373.052" y1="125.026" x2="373.052" y2="111.488" gradientUnits="userSpaceOnUse">
<stop stop-color="#007C87"/>
<stop offset="1" stop-color="#00C795"/>
</linearGradient>
<linearGradient id="paint72_linear_1_4418" x1="342.797" y1="145.809" x2="342.797" y2="116.922" gradientUnits="userSpaceOnUse">
<stop stop-color="#007C87"/>
<stop offset="1" stop-color="#00C795"/>
</linearGradient>
<linearGradient id="paint73_linear_1_4418" x1="312.543" y1="159.824" x2="312.543" y2="146.954" gradientUnits="userSpaceOnUse">
<stop stop-color="#007C87"/>
<stop offset="1" stop-color="#00C795"/>
</linearGradient>
<linearGradient id="paint74_linear_1_4418" x1="282.289" y1="178.415" x2="282.289" y2="153.818" gradientUnits="userSpaceOnUse">
<stop stop-color="#FF2A00"/>
<stop offset="1" stop-color="#FF6A00"/>
</linearGradient>
<linearGradient id="paint75_linear_1_4418" x1="252.035" y1="198.15" x2="252.035" y2="161.541" gradientUnits="userSpaceOnUse">
<stop stop-color="#007C87"/>
<stop offset="1" stop-color="#00C795"/>
</linearGradient>
<linearGradient id="paint76_linear_1_4418" x1="221.781" y1="213.5" x2="221.781" y2="189.855" gradientUnits="userSpaceOnUse">
<stop stop-color="#FF2A00"/>
<stop offset="1" stop-color="#FF6A00"/>
</linearGradient>
<linearGradient id="paint77_linear_1_4418" x1="191.527" y1="213.499" x2="191.527" y2="204.728" gradientUnits="userSpaceOnUse">
<stop stop-color="#007C87"/>
<stop offset="1" stop-color="#00C795"/>
</linearGradient>
<linearGradient id="paint78_linear_1_4418" x1="161.273" y1="231.042" x2="161.273" y2="178.415" gradientUnits="userSpaceOnUse">
<stop stop-color="#007C87"/>
<stop offset="1" stop-color="#00C795"/>
</linearGradient>
<linearGradient id="paint79_linear_1_4418" x1="131.019" y1="201.678" x2="131.019" y2="183.754" gradientUnits="userSpaceOnUse">
<stop stop-color="#FF2A00"/>
<stop offset="1" stop-color="#FF6A00"/>
</linearGradient>
<linearGradient id="paint80_linear_1_4418" x1="100.765" y1="225.703" x2="100.765" y2="189.855" gradientUnits="userSpaceOnUse">
<stop stop-color="#FF2A00"/>
<stop offset="1" stop-color="#FF6A00"/>
</linearGradient>
<linearGradient id="paint81_linear_1_4418" x1="70.5102" y1="237.907" x2="70.5102" y2="201.678" gradientUnits="userSpaceOnUse">
<stop stop-color="#FF2A00"/>
<stop offset="1" stop-color="#FF6A00"/>
</linearGradient>
<linearGradient id="paint82_linear_1_4418" x1="40.2597" y1="207.398" x2="40.2597" y2="183.754" gradientUnits="userSpaceOnUse">
<stop stop-color="#FF2A00"/>
<stop offset="1" stop-color="#FF6A00"/>
</linearGradient>
</defs>
</svg>
