<svg width="76" height="40" viewBox="0 0 76 40" fill="none" xmlns="http://www.w3.org/2000/svg">
<g id="Layer_1" clip-path="url(#clip0_1_360)">
<g id="Infinity letter p and q logo">
<path id="Vector" d="M70.0908 5.71C66.4008 2.02 61.5108 0 56.2908 0C51.0708 0 46.1808 2.03 42.4908 5.71L35.5908 12.61L49.3908 26.41C51.2308 28.25 53.6808 29.27 56.2908 29.27C58.9008 29.27 61.3508 28.26 63.1908 26.41C66.9908 22.61 66.9908 16.42 63.1908 12.61C61.3508 10.77 58.9008 9.75 56.2908 9.75C53.6808 9.75 51.2308 10.76 49.3908 12.61L44.7908 17.21L40.1908 12.61L44.7908 8.01C47.8608 4.94 51.9408 3.25 56.2908 3.25C60.6408 3.25 64.7208 4.94 67.7908 8.01C74.1308 14.35 74.1308 24.66 67.7908 31C64.7208 34.07 60.6408 35.76 56.2908 35.76C51.9408 35.76 47.8608 34.07 44.7908 31L42.4908 28.7L40.1908 31L42.4908 33.3C46.1808 36.98 51.0708 39.01 56.2908 39.01C61.5108 39.01 66.4008 36.98 70.0908 33.3C77.7008 25.69 77.7008 13.32 70.0908 5.71ZM49.4008 17.21L51.7008 14.91C52.9308 13.68 54.5608 13 56.3008 13C58.0408 13 59.6708 13.68 60.9008 14.9C63.4408 17.44 63.4408 21.56 60.9008 24.1C59.6708 25.33 58.0408 26 56.3008 26C54.5608 26 52.9308 25.32 51.7008 24.09L49.4008 21.79L47.1008 19.49L49.4008 17.19V17.21Z" fill="white"/>
<path id="Vector_2" d="M28.7004 14.91L26.4004 12.61C24.5604 10.77 22.1104 9.75 19.5004 9.75C16.8904 9.75 14.4404 10.76 12.6004 12.61C8.80043 16.41 8.80043 22.6 12.6004 26.41C14.4404 28.25 16.8904 29.27 19.5004 29.27C22.1104 29.27 24.5604 28.26 26.4004 26.41L28.7004 24.11L31.0004 21.81L35.6004 26.41L31.0004 31.01C27.9304 34.08 23.8504 35.77 19.5004 35.77C15.1504 35.77 11.0704 34.08 8.00043 31.01C1.66043 24.67 1.66043 14.36 8.00043 8.02C11.0704 4.95 15.1504 3.26 19.5004 3.26C23.8504 3.26 27.9304 4.95 31.0004 8.02L33.3004 10.32L35.6004 8.02L33.3004 5.72C29.6104 2.03 24.7104 0 19.5004 0C14.2904 0 9.39043 2.03 5.71043 5.71C-1.89957 13.32 -1.89957 25.69 5.71043 33.3C9.40043 36.98 14.2904 39.01 19.5104 39.01C24.7304 39.01 29.6204 36.98 33.3104 33.3L40.2104 26.4L28.7104 14.9L28.7004 14.91ZM26.4004 21.81L24.1004 24.11C22.8704 25.34 21.2404 26.02 19.5004 26.02C17.7604 26.02 16.1304 25.34 14.9004 24.12C12.3604 21.58 12.3604 17.46 14.9004 14.92C16.1304 13.69 17.7604 13.01 19.5004 13.01C21.2404 13.01 22.8704 13.69 24.1004 14.92L26.4004 17.22L28.7004 19.52L26.4004 21.82V21.81Z" fill="white"/>
</g>
</g>
<defs>
<clipPath id="clip0_1_360">
<rect width="75.79" height="39.02" fill="white"/>
</clipPath>
</defs>
</svg>
